<?xml version="1.0" encoding="UTF-8" ?>
<!DOCTYPE svg PUBLIC "-//W3C//DTD SVG 1.1//EN" "http://www.w3.org/Graphics/SVG/1.1/DTD/svg11.dtd">
<svg width="64pt" height="64pt" viewBox="0 0 64 64" version="1.1" xmlns="http://www.w3.org/2000/svg">
<path fill="#74bd4a" d=" M 0.00 0.00 L 64.00 0.00 L 64.00 30.80 C 60.76 30.92 57.18 30.42 54.36 32.40 C 52.17 33.81 49.79 35.19 47.07 35.01 C 39.37 34.90 31.66 35.00 23.95 34.96 C 19.10 35.21 14.24 31.63 13.49 26.75 C 12.71 23.43 12.70 19.52 9.92 17.10 C 7.42 14.30 3.34 15.08 0.00 14.69 L 0.00 0.00 Z" />
<path fill="#71582f" d=" M 0.00 14.69 C 3.34 15.08 7.42 14.30 9.92 17.10 C 12.70 19.52 12.71 23.43 13.49 26.75 C 14.24 31.63 19.10 35.21 23.95 34.96 C 31.66 35.00 39.37 34.90 47.07 35.01 C 49.79 35.19 52.17 33.81 54.36 32.40 C 57.18 30.42 60.76 30.92 64.00 30.80 L 64.00 32.82 C 60.88 33.08 57.27 32.39 54.81 34.79 C 52.87 36.58 50.33 37.31 47.73 37.21 C 39.47 37.21 31.20 37.39 22.94 37.13 C 19.24 37.11 15.90 35.21 13.63 32.36 C 9.62 28.41 12.28 21.02 7.18 17.86 C 4.86 17.17 2.40 17.19 0.00 16.92 L 0.00 14.69 Z" />
<path fill="#6abced" d=" M 0.00 16.92 C 2.40 17.19 4.86 17.17 7.18 17.86 C 12.28 21.02 9.62 28.41 13.63 32.36 C 15.90 35.21 19.24 37.11 22.94 37.13 C 31.20 37.39 39.47 37.21 47.73 37.21 C 48.10 39.80 47.63 43.22 50.55 44.47 C 54.29 47.67 59.24 48.41 64.00 48.19 L 64.00 64.00 L 0.00 64.00 L 0.00 16.92 Z" />
<path fill="#ebe399" d=" M 54.81 34.79 C 57.27 32.39 60.88 33.08 64.00 32.82 L 64.00 48.19 C 59.24 48.41 54.29 47.67 50.55 44.47 C 47.63 43.22 48.10 39.80 47.73 37.21 C 50.33 37.31 52.87 36.58 54.81 34.79 Z" />
</svg>
