<?xml version="1.0" encoding="UTF-8" ?>
<!DOCTYPE svg PUBLIC "-//W3C//DTD SVG 1.1//EN" "http://www.w3.org/Graphics/SVG/1.1/DTD/svg11.dtd">
<svg width="64pt" height="64pt" viewBox="0 0 64 64" version="1.1" xmlns="http://www.w3.org/2000/svg">
<path fill="#74bd4a" d=" M 0.00 0.00 L 30.80 0.00 C 30.92 2.29 30.91 4.59 31.37 6.85 C 32.26 10.02 34.86 12.55 35.08 15.94 C 35.37 20.27 35.52 24.66 34.93 28.97 C 33.45 35.48 28.02 40.37 26.87 47.00 C 26.41 50.06 28.57 52.52 29.89 55.05 C 31.53 57.73 31.07 61.01 31.27 64.00 L 0.00 64.00 L 0.00 0.00 Z" />
<path fill="#7b5218" d=" M 30.80 0.00 L 32.77 0.00 C 32.89 2.24 32.84 4.50 33.26 6.71 C 34.27 9.25 37.04 11.05 36.96 13.99 C 37.07 19.61 37.24 25.27 36.85 30.89 C 36.03 33.77 33.87 36.06 32.83 38.87 C 31.68 41.98 28.66 44.44 28.86 47.96 C 28.71 49.91 30.21 51.32 31.22 52.80 C 34.05 55.83 32.79 60.27 33.08 64.00 L 31.27 64.00 C 31.07 61.01 31.53 57.73 29.89 55.05 C 28.57 52.52 26.41 50.06 26.87 47.00 C 28.02 40.37 33.45 35.48 34.93 28.97 C 35.52 24.66 35.37 20.27 35.08 15.94 C 34.86 12.55 32.26 10.02 31.37 6.85 C 30.91 4.59 30.92 2.29 30.80 0.00 Z" />
<path fill="#ebe399" d=" M 32.77 0.00 L 47.75 0.00 C 47.84 1.68 47.91 3.36 48.10 5.03 C 48.44 9.00 52.06 11.88 52.02 15.94 C 52.22 20.29 52.17 24.65 51.95 29.00 C 51.95 34.36 45.48 36.36 44.21 41.20 C 43.54 45.49 43.48 50.19 45.94 53.96 C 47.94 56.94 48.16 60.53 48.28 64.00 L 33.08 64.00 C 32.79 60.27 34.05 55.83 31.22 52.80 C 30.21 51.32 28.71 49.91 28.86 47.96 C 28.66 44.44 31.68 41.98 32.83 38.87 C 33.87 36.06 36.03 33.77 36.85 30.89 C 37.24 25.27 37.07 19.61 36.96 13.99 C 37.04 11.05 34.27 9.25 33.26 6.71 C 32.84 4.50 32.89 2.24 32.77 0.00 Z" />
<path fill="#6abced" d=" M 47.75 0.00 L 64.00 0.00 L 64.00 64.00 L 48.28 64.00 C 48.16 60.53 47.94 56.94 45.94 53.96 C 43.48 50.19 43.54 45.49 44.21 41.20 C 45.48 36.36 51.95 34.36 51.95 29.00 C 52.17 24.65 52.22 20.29 52.02 15.94 C 52.06 11.88 48.44 9.00 48.10 5.03 C 47.91 3.36 47.84 1.68 47.75 0.00 Z" />
</svg>
