<?xml version="1.0" encoding="UTF-8" ?>
<!DOCTYPE svg PUBLIC "-//W3C//DTD SVG 1.1//EN" "http://www.w3.org/Graphics/SVG/1.1/DTD/svg11.dtd">
<svg width="64pt" height="64pt" viewBox="0 0 64 64" version="1.1" xmlns="http://www.w3.org/2000/svg">
<path fill="#73bd4a" d=" M 0.00 0.00 L 64.00 0.00 L 64.00 64.00 L 0.00 64.00 L 0.00 0.00 Z" />
<path fill="#6a6220" d=" M 15.45 3.31 C 19.30 1.64 24.07 4.18 24.93 8.27 C 25.88 11.25 23.53 13.69 22.38 16.22 C 20.65 19.40 19.75 23.83 15.77 24.95 C 11.99 26.15 8.30 23.18 7.04 19.77 C 6.02 16.51 8.78 13.91 10.05 11.19 C 11.69 8.49 12.49 4.93 15.45 3.31 Z" />
<path fill="#6abced" d=" M 16.40 5.27 C 19.07 4.48 21.27 6.41 22.67 8.46 C 23.37 10.74 21.50 12.59 20.60 14.49 C 18.96 17.23 18.42 20.84 15.56 22.68 C 12.91 23.58 10.72 21.53 9.32 19.53 C 8.63 17.25 10.52 15.42 11.45 13.54 C 13.19 10.84 13.87 7.40 16.40 5.27 Z" />
<path fill="#d2d2ca" d=" M 19.83 45.19 C 22.47 41.03 27.45 38.72 32.28 40.05 C 37.05 39.43 42.74 38.77 46.51 42.52 C 49.42 44.80 47.01 48.65 46.41 51.48 C 38.70 51.70 30.93 51.64 23.32 50.37 C 20.64 50.17 20.34 47.24 19.83 45.19 Z" />
</svg>
