<?xml version="1.0" encoding="UTF-8" ?>
<!DOCTYPE svg PUBLIC "-//W3C//DTD SVG 1.1//EN" "http://www.w3.org/Graphics/SVG/1.1/DTD/svg11.dtd">
<svg width="64pt" height="64pt" viewBox="0 0 64 64" version="1.1" xmlns="http://www.w3.org/2000/svg">
<path fill="#73bd4a" d=" M 0.00 0.00 L 23.97 0.00 C 23.83 4.41 24.96 9.36 22.15 13.19 C 20.48 15.61 20.14 18.58 19.25 21.32 C 16.46 23.84 13.25 25.90 10.64 28.64 C 8.02 31.78 3.58 30.73 0.00 31.07 L 0.00 0.00 Z" />
<path fill="#6e5d2a" d=" M 23.97 0.00 L 25.98 0.00 C 25.70 4.94 27.33 10.63 23.85 14.79 C 21.56 17.70 22.41 21.83 20.11 24.74 C 15.43 25.56 13.16 30.12 9.57 32.67 C 6.43 33.34 3.18 33.00 0.00 33.04 L 0.00 31.07 C 3.58 30.73 8.02 31.78 10.64 28.64 C 13.25 25.90 16.46 23.84 19.25 21.32 C 20.14 18.58 20.48 15.61 22.15 13.19 C 24.96 9.36 23.83 4.41 23.97 0.00 Z" />
<path fill="#6abced" d=" M 25.98 0.00 L 38.00 0.00 C 38.03 3.94 37.68 7.91 38.24 11.82 C 38.92 14.53 41.60 15.93 43.83 17.22 C 44.18 23.43 43.64 29.66 44.18 35.86 C 46.07 35.96 47.98 36.19 49.88 35.93 C 52.53 35.23 54.70 33.39 57.29 32.54 C 59.49 32.02 61.76 32.04 64.00 31.87 L 64.00 64.00 L 0.00 64.00 L 0.00 48.19 C 3.12 48.17 6.23 47.99 9.31 47.50 C 10.70 44.79 11.91 41.99 13.40 39.34 C 14.60 36.94 17.38 36.24 19.62 35.19 C 20.12 31.73 20.10 28.23 20.11 24.74 C 22.41 21.83 21.56 17.70 23.85 14.79 C 27.33 10.63 25.70 4.94 25.98 0.00 Z" />
<path fill="#6e5d2a" d=" M 38.00 0.00 L 40.04 0.00 C 40.01 3.60 39.73 7.22 40.22 10.80 C 40.58 13.08 42.84 14.72 45.08 14.79 C 51.38 15.23 57.70 14.71 64.00 14.95 L 64.00 17.01 C 57.28 17.06 50.55 16.87 43.83 17.22 C 41.60 15.93 38.92 14.53 38.24 11.82 C 37.68 7.91 38.03 3.94 38.00 0.00 Z" />
<path fill="#73bd4a" d=" M 40.04 0.00 L 64.00 0.00 L 64.00 14.95 C 57.70 14.71 51.38 15.23 45.08 14.79 C 42.84 14.72 40.58 13.08 40.22 10.80 C 39.73 7.22 40.01 3.60 40.04 0.00 Z" />
<path fill="#ebe399" d=" M 43.83 17.22 C 50.55 16.87 57.28 17.06 64.00 17.01 L 64.00 31.87 C 61.76 32.04 59.49 32.02 57.29 32.54 C 54.70 33.39 52.53 35.23 49.88 35.93 C 47.98 36.19 46.07 35.96 44.18 35.86 C 43.64 29.66 44.18 23.43 43.83 17.22 Z" />
<path fill="#ebe399" d=" M 9.57 32.67 C 13.16 30.12 15.43 25.56 20.11 24.74 C 20.10 28.23 20.12 31.73 19.62 35.19 C 17.38 36.24 14.60 36.94 13.40 39.34 C 11.91 41.99 10.70 44.79 9.31 47.50 C 6.23 47.99 3.12 48.17 0.00 48.19 L 0.00 33.04 C 3.18 33.00 6.43 33.34 9.57 32.67 Z" />
</svg>
