<?xml version="1.0" encoding="UTF-8" ?>
<!DOCTYPE svg PUBLIC "-//W3C//DTD SVG 1.1//EN" "http://www.w3.org/Graphics/SVG/1.1/DTD/svg11.dtd">
<svg width="64pt" height="64pt" viewBox="0 0 64 64" version="1.1" xmlns="http://www.w3.org/2000/svg">
<path fill="#73bd4a" d=" M 0.00 0.00 L 64.00 0.00 L 64.00 64.00 L 0.00 64.00 L 0.00 0.00 Z" />
<path fill="#d2d2ca" d=" M 11.95 14.22 C 17.19 13.05 22.64 12.69 27.84 14.34 C 27.76 18.53 27.63 22.71 27.82 26.90 C 22.59 27.66 17.20 27.91 12.11 26.21 C 13.14 22.24 12.61 18.19 11.95 14.22 Z" />
<path fill="#626220" d=" M 43.46 15.44 C 47.38 14.29 52.55 14.15 55.41 17.58 C 57.05 19.27 57.29 21.76 57.21 24.00 C 57.12 28.36 53.47 31.66 53.26 35.99 C 52.82 39.61 53.45 43.79 50.79 46.73 C 47.91 51.15 39.50 49.20 39.05 43.84 C 39.28 40.38 41.58 37.45 41.98 34.01 C 41.13 29.96 38.33 26.32 38.83 22.01 C 38.90 19.14 40.91 16.60 43.46 15.44 Z" />
<path fill="#6cbfe8" d=" M 44.46 17.42 C 47.96 16.07 52.91 16.68 54.53 20.52 C 56.05 24.50 53.37 28.23 51.95 31.79 C 50.04 36.22 52.04 41.86 48.58 45.67 C 46.58 48.53 41.27 46.45 41.56 43.04 C 42.13 39.64 44.21 36.57 44.07 33.05 C 43.52 29.57 41.11 26.62 41.02 23.05 C 40.89 20.69 42.38 18.45 44.46 17.42 Z" />
</svg>
