<?xml version="1.0" encoding="UTF-8" ?>
<!DOCTYPE svg PUBLIC "-//W3C//DTD SVG 1.1//EN" "http://www.w3.org/Graphics/SVG/1.1/DTD/svg11.dtd">
<svg width="64pt" height="64pt" viewBox="0 0 64 64" version="1.1" xmlns="http://www.w3.org/2000/svg">
<path fill="#74bd4a" d=" M 0.00 0.00 L 64.00 0.00 L 64.00 31.20 C 60.28 31.15 56.40 30.97 53.24 28.76 C 49.24 25.96 44.14 27.61 39.73 26.25 C 36.54 22.36 37.85 16.37 34.41 12.58 C 32.81 10.75 30.19 11.06 28.02 10.61 C 26.81 14.54 26.97 18.66 26.96 22.72 C 24.99 22.71 23.01 22.71 21.04 22.72 C 20.98 19.04 20.99 15.36 20.79 11.68 C 20.41 11.88 19.63 12.28 19.25 12.48 C 18.42 18.49 19.33 24.60 18.59 30.64 C 12.40 31.22 6.20 30.95 0.00 30.88 L 0.00 0.00 Z" />
<path fill="#6c6119" d=" M 28.02 10.61 C 30.19 11.06 32.81 10.75 34.41 12.58 C 37.85 16.37 36.54 22.36 39.73 26.25 C 44.14 27.61 49.24 25.96 53.24 28.76 C 56.40 30.97 60.28 31.15 64.00 31.20 L 64.00 33.08 C 61.10 33.04 58.17 33.24 55.30 32.76 C 52.53 31.51 50.42 28.51 47.05 29.00 C 43.95 28.54 39.98 30.01 37.65 27.31 C 34.42 23.88 35.85 18.48 33.29 14.71 C 32.37 13.30 30.55 13.18 29.13 12.59 C 28.83 18.53 29.12 24.47 28.93 30.41 C 28.10 29.73 27.35 28.98 26.67 28.15 C 26.79 26.34 26.87 24.53 26.96 22.72 C 26.97 18.66 26.81 14.54 28.02 10.61 Z" />
<path fill="#6c6119" d=" M 19.25 12.48 C 19.63 12.28 20.41 11.88 20.79 11.68 C 20.99 15.36 20.98 19.04 21.04 22.72 C 21.08 24.45 21.16 26.18 21.17 27.91 C 20.82 29.86 20.26 32.69 17.80 32.84 C 11.88 33.34 5.93 32.84 0.00 32.93 L 0.00 30.88 C 6.20 30.95 12.40 31.22 18.59 30.64 C 19.33 24.60 18.42 18.49 19.25 12.48 Z" />
<path fill="#ebe299" d=" M 29.13 12.59 C 30.55 13.18 32.37 13.30 33.29 14.71 C 35.85 18.48 34.42 23.88 37.65 27.31 C 39.98 30.01 43.95 28.54 47.05 29.00 C 50.42 28.51 52.53 31.51 55.30 32.76 C 58.17 33.24 61.10 33.04 64.00 33.08 L 64.00 48.34 C 61.06 48.03 57.89 48.18 55.26 46.61 C 53.01 45.63 50.90 43.76 48.31 44.01 C 44.04 47.15 40.84 51.50 36.84 54.95 C 34.97 56.54 32.29 55.95 30.04 56.14 C 25.48 55.96 20.84 56.50 16.33 55.61 C 10.79 52.99 5.86 49.13 0.00 47.14 L 0.00 32.93 C 5.93 32.84 11.88 33.34 17.80 32.84 C 20.26 32.69 20.82 29.86 21.17 27.91 C 23.00 28.03 24.84 28.07 26.67 28.15 C 27.35 28.98 28.10 29.73 28.93 30.41 C 29.12 24.47 28.83 18.53 29.13 12.59 Z" />
<path fill="#c3d57e" d=" M 21.04 22.72 C 23.01 22.71 24.99 22.71 26.96 22.72 C 26.87 24.53 26.79 26.34 26.67 28.15 C 24.84 28.07 23.00 28.03 21.17 27.91 C 21.16 26.18 21.08 24.45 21.04 22.72 Z" />
<path fill="#6bbcec" d=" M 36.84 54.95 C 40.84 51.50 44.04 47.15 48.31 44.01 C 50.90 43.76 53.01 45.63 55.26 46.61 C 57.89 48.18 61.06 48.03 64.00 48.34 L 64.00 64.00 L 0.00 64.00 L 0.00 47.14 C 5.86 49.13 10.79 52.99 16.33 55.61 C 20.84 56.50 25.48 55.96 30.04 56.14 C 32.29 55.95 34.97 56.54 36.84 54.95 Z" />
</svg>
