<?xml version="1.0" encoding="UTF-8" ?>
<!DOCTYPE svg PUBLIC "-//W3C//DTD SVG 1.1//EN" "http://www.w3.org/Graphics/SVG/1.1/DTD/svg11.dtd">
<svg width="64pt" height="64pt" viewBox="0 0 64 64" version="1.1" xmlns="http://www.w3.org/2000/svg">
<path fill="#74bd4a" d=" M 0.00 0.00 L 30.49 0.00 C 29.94 7.47 35.99 13.40 35.04 20.87 C 33.10 20.86 31.16 20.85 29.21 20.83 C 29.23 18.57 28.97 16.20 27.38 14.45 C 26.28 22.59 27.13 30.82 26.83 39.00 C 26.76 43.89 26.20 49.07 28.48 53.61 C 30.10 56.88 30.94 60.43 31.58 64.00 L 0.00 64.00 L 0.00 0.00 Z" />
<path fill="#78601e" d=" M 30.49 0.00 L 32.45 0.00 C 32.26 6.50 37.51 11.49 37.17 17.95 C 37.17 23.52 37.21 29.11 36.69 34.67 C 34.53 33.08 34.85 30.28 34.77 27.92 C 34.83 25.57 34.98 23.22 35.04 20.87 C 35.99 13.40 29.94 7.47 30.49 0.00 Z" />
<path fill="#ebe399" d=" M 32.45 0.00 L 47.88 0.00 C 47.88 2.68 47.77 5.38 48.08 8.05 C 48.62 12.60 51.79 16.37 52.17 20.96 C 52.41 24.08 52.29 27.64 50.10 30.11 C 48.00 33.06 44.35 35.26 43.84 39.08 C 43.95 43.71 47.40 47.42 47.90 51.97 C 48.40 55.96 48.06 60.00 47.97 64.00 L 33.37 64.00 C 33.21 61.73 33.13 59.44 32.61 57.22 C 31.57 53.78 29.02 50.82 28.97 47.09 C 28.75 40.70 29.16 34.31 29.13 27.92 C 31.01 27.91 32.89 27.91 34.77 27.92 C 34.85 30.28 34.53 33.08 36.69 34.67 C 37.21 29.11 37.17 23.52 37.17 17.95 C 37.51 11.49 32.26 6.50 32.45 0.00 Z" />
<path fill="#6abced" d=" M 47.88 0.00 L 64.00 0.00 L 64.00 64.00 L 47.97 64.00 C 48.06 60.00 48.40 55.96 47.90 51.97 C 47.40 47.42 43.95 43.71 43.84 39.08 C 44.35 35.26 48.00 33.06 50.10 30.11 C 52.29 27.64 52.41 24.08 52.17 20.96 C 51.79 16.37 48.62 12.60 48.08 8.05 C 47.77 5.38 47.88 2.68 47.88 0.00 Z" />
<path fill="#78601e" d=" M 27.38 14.45 C 28.97 16.20 29.23 18.57 29.21 20.83 C 29.23 23.19 29.16 25.56 29.13 27.92 C 29.16 34.31 28.75 40.70 28.97 47.09 C 29.02 50.82 31.57 53.78 32.61 57.22 C 33.13 59.44 33.21 61.73 33.37 64.00 L 31.58 64.00 C 30.94 60.43 30.10 56.88 28.48 53.61 C 26.20 49.07 26.76 43.89 26.83 39.00 C 27.13 30.82 26.28 22.59 27.38 14.45 Z" />
<path fill="#9cce6b" d=" M 29.21 20.83 C 31.16 20.85 33.10 20.86 35.04 20.87 C 34.98 23.22 34.83 25.57 34.77 27.92 C 32.89 27.91 31.01 27.91 29.13 27.92 C 29.16 25.56 29.23 23.19 29.21 20.83 Z" />
</svg>
