<?xml version="1.0" encoding="UTF-8" ?>
<!DOCTYPE svg PUBLIC "-//W3C//DTD SVG 1.1//EN" "http://www.w3.org/Graphics/SVG/1.1/DTD/svg11.dtd">
<svg width="64pt" height="64pt" viewBox="0 0 64 64" version="1.1" xmlns="http://www.w3.org/2000/svg">
<path fill="#73bd4a" d=" M 0.00 0.00 L 64.00 0.00 L 64.00 64.00 L 0.00 64.00 L 0.00 0.00 Z" />
<path fill="#d2d2ca" d=" M 37.39 27.34 C 40.05 26.76 43.12 26.95 45.39 28.56 C 47.29 30.47 49.04 33.70 47.27 36.25 C 45.34 39.60 42.91 44.08 38.34 43.49 C 35.32 43.52 30.37 42.04 31.18 38.18 C 32.09 34.21 33.28 29.12 37.39 27.34 Z" />
<path fill="#656510" d=" M 15.54 35.38 C 17.78 34.38 20.63 34.87 22.31 36.69 C 27.39 41.94 27.32 51.78 21.26 56.27 C 17.26 59.54 10.79 58.07 7.90 54.03 C 5.89 50.92 7.84 47.27 9.21 44.33 C 10.96 41.15 12.46 37.51 15.54 35.38 Z" />
<path fill="#6abced" d=" M 16.49 37.26 C 19.78 35.95 21.98 39.41 23.00 42.01 C 25.27 46.79 23.09 53.15 18.41 55.57 C 14.35 57.53 7.66 53.56 9.78 48.75 C 11.44 44.66 13.30 40.41 16.49 37.26 Z" />
</svg>
