<?xml version="1.0" encoding="UTF-8" ?>
<!DOCTYPE svg PUBLIC "-//W3C//DTD SVG 1.1//EN" "http://www.w3.org/Graphics/SVG/1.1/DTD/svg11.dtd">
<svg width="64pt" height="64pt" viewBox="0 0 64 64" version="1.1" xmlns="http://www.w3.org/2000/svg">
<path fill="#73bd4a" d=" M 0.00 0.00 L 64.00 0.00 L 64.00 64.00 L 0.00 64.00 L 0.00 0.00 Z" />
<path fill="#6f5e1a" d=" M 35.40 23.35 C 37.81 22.75 40.84 22.44 42.88 24.15 C 44.83 26.82 45.30 30.23 46.94 33.07 C 49.46 34.82 52.63 35.25 55.25 36.80 C 58.64 40.31 57.18 46.84 52.53 48.51 C 48.35 49.60 43.77 49.55 39.63 48.35 C 36.49 47.26 35.95 43.63 35.10 40.88 C 34.31 37.32 32.21 34.27 31.03 30.87 C 30.52 27.80 32.13 24.08 35.40 23.35 Z" />
<path fill="#6abced" d=" M 33.05 29.93 C 33.54 26.34 37.37 24.29 40.76 24.77 C 42.64 27.94 43.47 31.59 45.25 34.79 C 47.91 37.36 53.27 36.45 54.66 40.44 C 55.89 42.90 53.62 45.48 51.55 46.58 C 48.04 47.64 44.18 47.31 40.70 46.26 C 38.13 45.29 38.02 42.06 37.18 39.84 C 36.39 36.30 34.35 33.26 33.05 29.93 Z" />
<path fill="#d2d2ca" d=" M 7.54 35.57 C 12.53 35.97 17.54 35.37 22.51 35.51 C 25.66 37.19 24.92 41.13 23.98 43.91 C 22.67 47.48 26.08 52.11 22.40 54.83 C 19.24 56.55 14.44 57.46 11.85 54.28 C 9.73 51.77 7.42 48.82 7.69 45.34 C 7.79 42.08 7.70 38.82 7.54 35.57 Z" />
</svg>
