<?xml version="1.0" encoding="UTF-8" ?>
<!DOCTYPE svg PUBLIC "-//W3C//DTD SVG 1.1//EN" "http://www.w3.org/Graphics/SVG/1.1/DTD/svg11.dtd">
<svg width="64pt" height="64pt" viewBox="0 0 64 64" version="1.1" xmlns="http://www.w3.org/2000/svg">
<path fill="#74bd4a" d=" M 0.00 0.00 L 8.83 0.00 C 9.49 5.21 10.08 10.45 9.84 15.71 C 9.71 18.15 10.56 20.47 11.43 22.71 C 17.33 21.74 23.39 21.41 29.21 23.04 C 31.02 21.29 32.76 19.19 35.36 18.66 C 38.43 17.60 41.74 18.57 44.83 17.74 C 47.58 16.28 49.85 13.95 51.61 11.41 C 51.27 9.73 50.88 8.05 50.26 6.45 C 50.78 4.29 51.37 2.15 51.90 0.00 L 64.00 0.00 L 64.00 64.00 L 0.00 64.00 L 0.00 0.00 Z" />
<path fill="#cdcbc3" d=" M 8.83 0.00 L 51.90 0.00 C 51.37 2.15 50.78 4.29 50.26 6.45 C 50.88 8.05 51.27 9.73 51.61 11.41 C 49.85 13.95 47.58 16.28 44.83 17.74 C 41.74 18.57 38.43 17.60 35.36 18.66 C 32.76 19.19 31.02 21.29 29.21 23.04 C 23.39 21.41 17.33 21.74 11.43 22.71 C 10.56 20.47 9.71 18.15 9.84 15.71 C 10.08 10.45 9.49 5.21 8.83 0.00 Z" />
</svg>
