<?xml version="1.0" encoding="UTF-8" ?>
<!DOCTYPE svg PUBLIC "-//W3C//DTD SVG 1.1//EN" "http://www.w3.org/Graphics/SVG/1.1/DTD/svg11.dtd">
<svg width="64pt" height="64pt" viewBox="0 0 64 64" version="1.1" xmlns="http://www.w3.org/2000/svg">
<path fill="#74bd4a" d=" M 0.00 0.00 L 8.77 0.00 C 8.40 5.48 8.01 11.10 9.32 16.48 C 9.94 18.79 10.92 21.34 13.10 22.59 C 15.62 23.14 18.25 22.69 20.76 23.34 C 22.60 24.76 23.84 27.51 26.57 27.25 C 31.38 27.32 36.22 27.32 41.01 26.84 C 43.43 26.79 44.56 24.39 45.84 22.73 C 48.11 18.94 51.26 15.38 51.73 10.81 C 52.04 7.21 51.58 3.60 51.46 0.00 L 64.00 0.00 L 64.00 64.00 L 0.00 64.00 L 0.00 0.00 Z" />
<path fill="#d2d2ca" d=" M 8.77 0.00 L 51.46 0.00 C 51.58 3.60 52.04 7.21 51.73 10.81 C 51.26 15.38 48.11 18.94 45.84 22.73 C 44.56 24.39 43.43 26.79 41.01 26.84 C 36.22 27.32 31.38 27.32 26.57 27.25 C 23.84 27.51 22.60 24.76 20.76 23.34 C 18.25 22.69 15.62 23.14 13.10 22.59 C 10.92 21.34 9.94 18.79 9.32 16.48 C 8.01 11.10 8.40 5.48 8.77 0.00 Z" />
<path fill="#6a6128" d=" M 36.31 36.26 C 39.58 35.68 43.75 35.05 46.28 37.73 C 48.19 39.51 50.12 41.29 51.65 43.42 C 52.49 46.40 52.34 49.66 51.72 52.67 C 49.55 57.30 43.48 56.43 39.37 55.66 C 35.78 52.70 30.89 49.32 31.81 43.98 C 31.46 40.70 33.65 37.88 36.31 36.26 Z" />
<path fill="#6abced" d=" M 37.26 38.22 C 39.73 37.98 42.84 37.26 44.78 39.27 C 47.25 41.61 50.72 44.13 50.07 48.00 C 50.33 50.32 49.74 52.52 47.66 53.79 C 45.28 54.10 42.73 54.35 40.41 53.64 C 37.51 51.14 33.36 48.35 33.96 43.99 C 33.51 41.45 35.29 39.51 37.26 38.22 Z" />
</svg>
