<?xml version="1.0" encoding="UTF-8" ?>
<!DOCTYPE svg PUBLIC "-//W3C//DTD SVG 1.1//EN" "http://www.w3.org/Graphics/SVG/1.1/DTD/svg11.dtd">
<svg width="64pt" height="64pt" viewBox="0 0 64 64" version="1.1" xmlns="http://www.w3.org/2000/svg">
<path fill="#74bd4a" d=" M 0.00 0.00 L 64.00 0.00 L 64.00 24.06 C 57.98 24.03 51.51 22.91 45.99 26.00 C 40.76 28.82 34.64 28.30 28.91 28.08 C 23.96 27.93 20.04 24.08 15.08 23.95 C 10.06 23.74 5.03 24.08 0.00 24.05 L 0.00 0.00 Z" />
<path fill="#795724" d=" M 0.00 24.05 C 5.03 24.08 10.06 23.74 15.08 23.95 C 20.04 24.08 23.96 27.93 28.91 28.08 C 34.64 28.30 40.76 28.82 45.99 26.00 C 51.51 22.91 57.98 24.03 64.00 24.06 L 64.00 26.03 C 59.99 26.00 55.97 25.77 51.96 26.08 C 48.03 26.43 45.11 29.93 41.09 29.97 C 36.37 30.15 31.63 30.13 26.91 29.95 C 22.58 29.90 19.46 25.90 15.09 26.00 C 10.06 25.83 5.03 26.06 0.00 26.00 L 0.00 24.05 Z" />
<path fill="#6abced" d=" M 0.00 26.00 C 5.03 26.06 10.06 25.83 15.09 26.00 C 19.46 25.90 22.58 29.90 26.91 29.95 C 31.63 30.13 36.37 30.15 41.09 29.97 C 45.11 29.93 48.03 26.43 51.96 26.08 C 55.97 25.77 59.99 26.00 64.00 26.03 L 64.00 38.01 C 58.99 38.10 53.49 37.07 49.06 40.06 C 45.20 42.71 40.40 41.98 35.99 42.04 C 31.97 41.97 27.95 42.20 23.94 41.94 C 19.95 41.79 17.10 38.10 13.09 38.04 C 8.73 37.80 4.36 38.02 0.00 38.04 L 0.00 26.00 Z" />
<path fill="#795724" d=" M 30.06 30.73 C 31.73 32.19 33.35 33.72 34.94 35.26 C 33.62 37.20 31.85 38.76 30.05 40.24 C 29.94 37.07 29.95 33.90 30.06 30.73 Z" />
<path fill="#6abced" d=" M 31.26 33.84 C 32.90 32.76 34.46 36.25 32.52 36.80 C 31.07 36.94 30.48 34.83 31.26 33.84 Z" />
<path fill="#795724" d=" M 0.00 38.04 C 4.36 38.02 8.73 37.80 13.09 38.04 C 17.10 38.10 19.95 41.79 23.94 41.94 C 27.95 42.20 31.97 41.97 35.99 42.04 C 40.40 41.98 45.20 42.71 49.06 40.06 C 53.49 37.07 58.99 38.10 64.00 38.01 L 64.00 39.95 C 60.73 39.94 57.39 39.58 54.17 40.34 C 50.12 41.53 46.48 44.30 42.07 44.09 C 36.36 44.06 30.64 44.09 24.92 44.07 C 19.90 44.19 16.07 39.99 11.09 39.91 C 7.40 39.73 3.70 39.96 0.00 40.05 L 0.00 38.04 Z" />
<path fill="#74bd4a" d=" M 0.00 40.05 C 3.70 39.96 7.40 39.73 11.09 39.91 C 16.07 39.99 19.90 44.19 24.92 44.07 C 30.64 44.09 36.36 44.06 42.07 44.09 C 46.48 44.30 50.12 41.53 54.17 40.34 C 57.39 39.58 60.73 39.94 64.00 39.95 L 64.00 64.00 L 0.00 64.00 L 0.00 40.05 Z" />
</svg>
