<?xml version="1.0" encoding="UTF-8" ?>
<!DOCTYPE svg PUBLIC "-//W3C//DTD SVG 1.1//EN" "http://www.w3.org/Graphics/SVG/1.1/DTD/svg11.dtd">
<svg width="64pt" height="64pt" viewBox="0 0 64 64" version="1.1" xmlns="http://www.w3.org/2000/svg">
<path fill="#74bd4a" d=" M 0.00 0.00 L 64.00 0.00 L 64.00 23.98 C 59.78 24.03 55.21 23.25 51.36 25.44 C 48.30 26.99 44.86 29.13 41.33 27.75 C 37.17 25.71 34.21 21.50 29.49 20.54 C 23.35 19.32 16.79 19.58 10.97 22.02 C 7.49 23.51 3.74 24.09 0.00 24.44 L 0.00 0.00 Z" />
<path fill="#795724" d=" M 10.97 22.02 C 16.79 19.58 23.35 19.32 29.49 20.54 C 34.21 21.50 37.17 25.71 41.33 27.75 C 44.86 29.13 48.30 26.99 51.36 25.44 C 55.21 23.25 59.78 24.03 64.00 23.98 L 64.00 25.89 C 60.16 26.03 55.96 25.43 52.61 27.73 C 48.99 30.13 44.45 30.69 40.27 29.70 C 35.78 27.79 32.45 23.78 27.70 22.37 C 22.22 21.17 16.46 22.10 11.39 24.41 C 7.84 26.11 3.85 26.08 0.00 26.12 L 0.00 24.44 C 3.74 24.09 7.49 23.51 10.97 22.02 Z" />
<path fill="#6abced" d=" M 11.39 24.41 C 16.46 22.10 22.22 21.17 27.70 22.37 C 32.45 23.78 35.78 27.79 40.27 29.70 C 44.45 30.69 48.99 30.13 52.61 27.73 C 55.96 25.43 60.16 26.03 64.00 25.89 L 64.00 37.89 C 61.68 37.94 59.35 37.89 57.04 38.16 C 53.72 38.60 51.42 41.72 48.05 41.97 C 44.61 42.15 40.98 42.45 37.66 41.31 C 33.89 39.21 31.14 35.37 26.83 34.22 C 23.62 33.75 20.31 33.73 17.10 34.20 C 14.47 34.94 12.31 36.76 9.75 37.66 C 6.54 38.29 3.25 38.00 0.00 38.05 L 0.00 26.12 C 3.85 26.08 7.84 26.11 11.39 24.41 Z" />
<path fill="#795724" d=" M 30.03 24.72 C 31.76 26.21 33.44 27.75 35.13 29.29 C 33.50 31.03 31.85 32.76 30.06 34.34 C 29.97 31.13 29.95 27.93 30.03 24.72 Z" />
<path fill="#6abced" d=" M 31.08 26.58 C 31.91 27.40 32.72 28.24 33.52 29.10 C 33.70 30.62 31.78 31.29 31.07 32.44 C 31.03 30.49 31.04 28.53 31.08 26.58 Z" />
<path fill="#795724" d=" M 9.75 37.66 C 12.31 36.76 14.47 34.94 17.10 34.20 C 20.31 33.73 23.62 33.75 26.83 34.22 C 31.14 35.37 33.89 39.21 37.66 41.31 C 40.98 42.45 44.61 42.15 48.05 41.97 C 51.42 41.72 53.72 38.60 57.04 38.16 C 59.35 37.89 61.68 37.94 64.00 37.89 L 64.00 39.63 C 62.32 39.77 60.64 39.89 58.98 40.14 C 55.06 40.59 51.99 43.59 48.07 44.01 C 44.53 44.33 40.86 44.43 37.41 43.48 C 32.69 41.42 29.53 36.23 24.03 35.92 C 20.27 35.29 16.58 36.44 13.34 38.28 C 9.29 40.65 4.47 40.02 0.00 40.06 L 0.00 38.05 C 3.25 38.00 6.54 38.29 9.75 37.66 Z" />
<path fill="#74bd4a" d=" M 13.34 38.28 C 16.58 36.44 20.27 35.29 24.03 35.92 C 29.53 36.23 32.69 41.42 37.41 43.48 C 40.86 44.43 44.53 44.33 48.07 44.01 C 51.99 43.59 55.06 40.59 58.98 40.14 C 60.64 39.89 62.32 39.77 64.00 39.63 L 64.00 64.00 L 0.00 64.00 L 0.00 40.06 C 4.47 40.02 9.29 40.65 13.34 38.28 Z" />
</svg>
