<?xml version="1.0" encoding="UTF-8" ?>
<!DOCTYPE svg PUBLIC "-//W3C//DTD SVG 1.1//EN" "http://www.w3.org/Graphics/SVG/1.1/DTD/svg11.dtd">
<svg width="64pt" height="64pt" viewBox="0 0 64 64" version="1.1" xmlns="http://www.w3.org/2000/svg">
<path fill="#73bd4a" d=" M 0.00 0.00 L 64.00 0.00 L 64.00 24.17 C 61.14 24.07 58.21 24.29 55.42 23.57 C 51.19 20.20 48.88 14.47 43.50 12.57 C 39.09 11.52 34.49 12.02 30.00 11.90 C 26.41 12.02 22.58 11.64 19.25 13.26 C 15.19 15.34 12.81 19.46 9.37 22.31 C 6.80 24.52 3.12 23.88 0.00 24.31 L 0.00 0.00 Z" />
<path fill="#795724" d=" M 19.25 13.26 C 22.58 11.64 26.41 12.02 30.00 11.90 C 34.49 12.02 39.09 11.52 43.50 12.57 C 48.88 14.47 51.19 20.20 55.42 23.57 C 58.21 24.29 61.14 24.07 64.00 24.17 L 64.00 26.08 C 60.57 25.88 56.93 26.48 53.65 25.27 C 49.61 21.74 47.37 15.81 41.82 14.23 C 35.62 13.76 29.35 13.79 23.16 14.22 C 16.45 15.18 14.24 22.84 8.51 25.47 C 5.76 26.28 2.83 25.98 0.00 26.11 L 0.00 24.31 C 3.12 23.88 6.80 24.52 9.37 22.31 C 12.81 19.46 15.19 15.34 19.25 13.26 Z" />
<path fill="#6abced" d=" M 8.51 25.47 C 14.24 22.84 16.45 15.18 23.16 14.22 C 29.35 13.79 35.62 13.76 41.82 14.23 C 47.37 15.81 49.61 21.74 53.65 25.27 C 56.93 26.48 60.57 25.88 64.00 26.08 L 64.00 37.99 C 59.14 37.88 54.20 38.47 49.39 37.61 C 43.59 33.40 39.07 25.36 30.99 25.89 C 23.39 25.71 20.07 33.80 14.64 37.64 C 9.81 38.44 4.87 37.90 0.00 37.99 L 0.00 26.11 C 2.83 25.98 5.76 26.28 8.51 25.47 Z" />
<path fill="#795724" d=" M 30.05 14.76 C 31.68 16.14 33.41 17.47 34.72 19.18 C 34.22 21.42 31.60 22.63 30.06 24.24 C 29.93 21.08 29.92 17.92 30.05 14.76 Z" />
<path fill="#6abced" d=" M 31.04 16.70 C 32.16 17.63 33.21 18.64 34.16 19.74 C 33.09 20.55 32.04 21.39 31.00 22.24 C 31.00 20.40 31.00 18.55 31.04 16.70 Z" />
<path fill="#795724" d=" M 14.64 37.64 C 20.07 33.80 23.39 25.71 30.99 25.89 C 39.07 25.36 43.59 33.40 49.39 37.61 C 54.20 38.47 59.14 37.88 64.00 37.99 L 64.00 39.97 C 58.88 39.84 53.57 40.74 48.57 39.36 C 43.08 35.98 39.45 29.58 32.92 27.97 C 27.71 26.97 23.84 31.25 20.73 34.74 C 18.72 36.67 16.95 39.50 13.95 39.82 C 9.31 40.30 4.65 39.97 0.00 39.97 L 0.00 37.99 C 4.87 37.90 9.81 38.44 14.64 37.64 Z" />
<path fill="#73bd4a" d=" M 20.73 34.74 C 23.84 31.25 27.71 26.97 32.92 27.97 C 39.45 29.58 43.08 35.98 48.57 39.36 C 53.57 40.74 58.88 39.84 64.00 39.97 L 64.00 64.00 L 0.00 64.00 L 0.00 39.97 C 4.65 39.97 9.31 40.30 13.95 39.82 C 16.95 39.50 18.72 36.67 20.73 34.74 Z" />
</svg>
