<?xml version="1.0" encoding="UTF-8" ?>
<!DOCTYPE svg PUBLIC "-//W3C//DTD SVG 1.1//EN" "http://www.w3.org/Graphics/SVG/1.1/DTD/svg11.dtd">
<svg width="64pt" height="64pt" viewBox="0 0 64 64" version="1.1" xmlns="http://www.w3.org/2000/svg">
<path fill="#74bd4a" d=" M 0.00 0.00 L 23.97 0.00 C 23.96 3.28 23.73 6.59 24.24 9.84 C 24.98 12.51 27.23 14.46 28.07 17.08 C 28.04 19.98 26.38 23.94 23.00 23.94 C 15.34 24.26 7.67 23.84 0.00 24.03 L 0.00 0.00 Z" />
<path fill="#795724" d=" M 23.97 0.00 L 25.93 0.00 C 25.98 2.95 25.79 5.92 26.29 8.84 C 27.19 12.03 30.47 14.38 30.08 17.95 C 29.96 21.37 27.98 25.87 24.01 25.87 C 16.01 26.22 8.00 25.88 0.00 26.00 L 0.00 24.03 C 7.67 23.84 15.34 24.26 23.00 23.94 C 26.38 23.94 28.04 19.98 28.07 17.08 C 27.23 14.46 24.98 12.51 24.24 9.84 C 23.73 6.59 23.96 3.28 23.97 0.00 Z" />
<path fill="#6bbdec" d=" M 25.93 0.00 L 37.92 0.00 C 38.00 2.93 37.75 5.90 38.37 8.78 C 39.48 11.54 41.94 13.78 41.98 16.92 C 41.99 20.90 43.08 25.78 39.79 28.82 C 36.88 31.83 34.73 36.08 30.81 37.82 C 20.56 38.34 10.27 37.83 0.00 38.00 L 0.00 26.00 C 8.00 25.88 16.01 26.22 24.01 25.87 C 27.98 25.87 29.96 21.37 30.08 17.95 C 30.47 14.38 27.19 12.03 26.29 8.84 C 25.79 5.92 25.98 2.95 25.93 0.00 Z" />
<path fill="#795724" d=" M 37.92 0.00 L 39.86 0.00 C 39.94 3.50 39.47 7.35 41.74 10.32 C 44.73 14.27 44.23 19.42 44.06 24.07 C 44.18 28.34 40.46 31.06 38.12 34.15 C 35.84 36.52 33.80 40.14 30.05 39.97 C 20.04 40.15 10.02 39.83 0.00 40.01 L 0.00 38.00 C 10.27 37.83 20.56 38.34 30.81 37.82 C 34.73 36.08 36.88 31.83 39.79 28.82 C 43.08 25.78 41.99 20.90 41.98 16.92 C 41.94 13.78 39.48 11.54 38.37 8.78 C 37.75 5.90 38.00 2.93 37.92 0.00 Z" />
<path fill="#74bd4a" d=" M 39.86 0.00 L 64.00 0.00 L 64.00 64.00 L 0.00 64.00 L 0.00 40.01 C 10.02 39.83 20.04 40.15 30.05 39.97 C 33.80 40.14 35.84 36.52 38.12 34.15 C 40.46 31.06 44.18 28.34 44.06 24.07 C 44.23 19.42 44.73 14.27 41.74 10.32 C 39.47 7.35 39.94 3.50 39.86 0.00 Z" />
<path fill="#795724" d=" M 29.71 23.02 C 32.14 23.01 34.57 22.98 36.99 23.04 C 37.03 25.43 37.05 27.82 37.00 30.22 C 34.31 28.10 31.81 25.72 29.71 23.02 Z" />
<path fill="#6bbdec" d=" M 31.67 24.06 C 33.13 24.04 34.58 24.00 36.03 23.95 C 36.00 24.92 35.95 26.86 35.93 27.84 C 34.22 26.93 32.86 25.57 31.67 24.06 Z" />
</svg>
