<?xml version="1.0" encoding="UTF-8" ?>
<!DOCTYPE svg PUBLIC "-//W3C//DTD SVG 1.1//EN" "http://www.w3.org/Graphics/SVG/1.1/DTD/svg11.dtd">
<svg width="64pt" height="64pt" viewBox="0 0 64 64" version="1.1" xmlns="http://www.w3.org/2000/svg">
<path fill="#74bd4a" d=" M 0.00 0.00 L 23.95 0.00 C 23.94 2.99 23.78 5.99 24.16 8.96 C 24.69 12.25 26.92 14.91 27.94 18.03 C 26.92 22.27 23.60 25.95 19.61 27.67 C 17.33 28.65 15.36 26.47 13.37 25.67 C 9.39 23.07 4.46 24.10 0.00 24.02 L 0.00 0.00 Z" />
<path fill="#795724" d=" M 23.95 0.00 L 25.92 0.00 C 26.08 3.89 25.42 8.10 27.41 11.65 C 28.58 14.39 31.16 17.36 29.51 20.44 C 27.31 24.37 24.43 28.75 19.79 29.89 C 17.05 30.70 14.68 28.86 12.44 27.60 C 8.80 25.05 4.14 26.19 0.00 25.98 L 0.00 24.02 C 4.46 24.10 9.39 23.07 13.37 25.67 C 15.36 26.47 17.33 28.65 19.61 27.67 C 23.60 25.95 26.92 22.27 27.94 18.03 C 26.92 14.91 24.69 12.25 24.16 8.96 C 23.78 5.99 23.94 2.99 23.95 0.00 Z" />
<path fill="#6abced" d=" M 25.92 0.00 L 37.86 0.00 C 37.97 3.52 37.64 7.29 39.61 10.40 C 42.65 15.21 42.53 21.20 41.61 26.60 C 39.86 29.40 37.19 31.46 34.45 33.22 C 34.17 31.16 33.95 29.10 33.75 27.03 C 31.41 26.99 29.08 26.99 26.74 26.96 C 29.17 29.54 31.62 32.11 33.96 34.78 C 31.57 37.11 29.39 39.72 26.58 41.57 C 23.43 42.36 20.13 42.14 16.92 41.98 C 13.78 41.94 11.55 39.46 8.79 38.35 C 5.90 37.74 2.93 38.01 0.00 37.94 L 0.00 25.98 C 4.14 26.19 8.80 25.05 12.44 27.60 C 14.68 28.86 17.05 30.70 19.79 29.89 C 24.43 28.75 27.31 24.37 29.51 20.44 C 31.16 17.36 28.58 14.39 27.41 11.65 C 25.42 8.10 26.08 3.89 25.92 0.00 Z" />
<path fill="#795724" d=" M 37.86 0.00 L 39.75 0.00 C 39.90 3.21 39.88 6.60 41.61 9.45 C 44.81 14.61 44.49 20.98 43.71 26.75 C 42.48 29.88 39.48 31.85 37.24 34.24 C 33.90 37.22 31.27 41.00 27.55 43.53 C 21.64 44.49 14.81 45.13 9.69 41.38 C 6.85 39.42 3.25 40.01 0.00 39.87 L 0.00 37.94 C 2.93 38.01 5.90 37.74 8.79 38.35 C 11.55 39.46 13.78 41.94 16.92 41.98 C 20.13 42.14 23.43 42.36 26.58 41.57 C 29.39 39.72 31.57 37.11 33.96 34.78 C 31.62 32.11 29.17 29.54 26.74 26.96 C 29.08 26.99 31.41 26.99 33.75 27.03 C 33.95 29.10 34.17 31.16 34.45 33.22 C 37.19 31.46 39.86 29.40 41.61 26.60 C 42.53 21.20 42.65 15.21 39.61 10.40 C 37.64 7.29 37.97 3.52 37.86 0.00 Z" />
<path fill="#74bd4a" d=" M 39.75 0.00 L 64.00 0.00 L 64.00 64.00 L 0.00 64.00 L 0.00 39.87 C 3.25 40.01 6.85 39.42 9.69 41.38 C 14.81 45.13 21.64 44.49 27.55 43.53 C 31.27 41.00 33.90 37.22 37.24 34.24 C 39.48 31.85 42.48 29.88 43.71 26.75 C 44.49 20.98 44.81 14.61 41.61 9.45 C 39.88 6.60 39.90 3.21 39.75 0.00 Z" />
<path fill="#6abced" d=" M 30.52 28.23 C 32.40 26.89 34.23 30.80 32.32 31.50 C 31.17 31.06 29.63 29.49 30.52 28.23 Z" />
</svg>
