<?xml version="1.0" encoding="UTF-8" ?>
<!DOCTYPE svg PUBLIC "-//W3C//DTD SVG 1.1//EN" "http://www.w3.org/Graphics/SVG/1.1/DTD/svg11.dtd">
<svg width="64pt" height="64pt" viewBox="0 0 64 64" version="1.1" xmlns="http://www.w3.org/2000/svg">
<path fill="#74bd4a" d=" M 0.00 0.00 L 64.00 0.00 L 64.00 64.00 L 40.00 64.00 C 39.92 57.32 40.13 50.63 40.00 43.95 C 40.17 38.38 35.21 34.87 31.79 31.21 C 28.59 28.39 25.77 23.99 21.03 24.01 C 14.02 23.84 7.01 24.10 0.00 24.03 L 0.00 0.00 Z" />
<path fill="#795724" d=" M 0.00 24.03 C 7.01 24.10 14.02 23.84 21.03 24.01 C 25.77 23.99 28.59 28.39 31.79 31.21 C 35.21 34.87 40.17 38.38 40.00 43.95 C 40.13 50.63 39.92 57.32 40.00 64.00 L 38.01 64.00 C 37.93 57.32 38.13 50.63 38.00 43.95 C 38.10 40.02 34.69 37.37 32.29 34.71 C 29.16 31.86 26.52 28.27 22.69 26.33 C 15.17 25.50 7.56 26.22 0.00 26.00 L 0.00 24.03 Z" />
<path fill="#6bbdec" d=" M 0.00 26.00 C 7.56 26.22 15.17 25.50 22.69 26.33 C 26.52 28.27 29.16 31.86 32.29 34.71 C 34.69 37.37 38.10 40.02 38.00 43.95 C 38.13 50.63 37.93 57.32 38.01 64.00 L 26.00 64.00 C 25.97 59.32 26.14 54.63 25.96 49.95 C 25.96 44.78 21.30 41.25 17.38 38.68 C 11.75 37.23 5.77 38.32 0.00 38.01 L 0.00 26.00 Z" />
<path fill="#795724" d=" M 22.72 42.07 C 24.83 39.37 27.26 36.94 29.96 34.82 C 30.09 37.19 30.05 39.57 29.97 41.94 C 27.55 42.04 25.13 42.12 22.72 42.07 Z" />
<path fill="#6bbdec" d=" M 24.81 40.97 C 26.08 39.47 27.48 38.07 28.98 36.80 C 28.99 38.20 29.00 39.61 29.02 41.02 C 27.62 41.00 26.21 40.98 24.81 40.97 Z" />
<path fill="#795724" d=" M 0.00 38.01 C 5.77 38.32 11.75 37.23 17.38 38.68 C 21.30 41.25 25.96 44.78 25.96 49.95 C 26.14 54.63 25.97 59.32 26.00 64.00 L 23.98 64.00 C 23.83 58.79 24.56 53.49 23.58 48.34 C 21.61 43.85 17.28 39.60 12.05 39.92 C 8.03 39.83 4.02 40.01 0.00 40.02 L 0.00 38.01 Z" />
<path fill="#74bd4a" d=" M 0.00 40.02 C 4.02 40.01 8.03 39.83 12.05 39.92 C 17.28 39.60 21.61 43.85 23.58 48.34 C 24.56 53.49 23.83 58.79 23.98 64.00 L 0.00 64.00 L 0.00 40.02 Z" />
</svg>
