<?xml version="1.0" encoding="UTF-8" ?>
<!DOCTYPE svg PUBLIC "-//W3C//DTD SVG 1.1//EN" "http://www.w3.org/Graphics/SVG/1.1/DTD/svg11.dtd">
<svg width="64pt" height="64pt" viewBox="0 0 64 64" version="1.1" xmlns="http://www.w3.org/2000/svg">
<path fill="#74bd4a" d=" M 0.00 0.00 L 64.00 0.00 L 64.00 64.00 L 39.71 64.00 C 39.26 58.83 41.90 54.44 43.74 49.86 C 44.37 43.80 45.34 36.29 40.30 31.74 C 36.23 27.81 32.49 23.24 27.33 20.73 C 21.70 19.23 15.31 19.25 10.08 22.05 C 6.99 23.77 3.46 24.14 0.00 24.35 L 0.00 0.00 Z" />
<path fill="#795724" d=" M 10.08 22.05 C 15.31 19.25 21.70 19.23 27.33 20.73 C 32.49 23.24 36.23 27.81 40.30 31.74 C 45.34 36.29 44.37 43.80 43.74 49.86 C 41.90 54.44 39.26 58.83 39.71 64.00 L 37.84 64.00 C 37.98 61.44 37.78 58.81 38.44 56.31 C 39.60 53.22 42.17 50.59 42.04 47.09 C 41.94 42.81 43.07 37.66 39.71 34.29 C 35.65 30.03 31.62 25.44 26.34 22.69 C 21.11 21.22 15.15 21.48 10.39 24.32 C 7.27 26.27 3.52 26.05 0.00 26.13 L 0.00 24.35 C 3.46 24.14 6.99 23.77 10.08 22.05 Z" />
<path fill="#6bbdec" d=" M 10.39 24.32 C 15.15 21.48 21.11 21.22 26.34 22.69 C 31.62 25.44 35.65 30.03 39.71 34.29 C 43.07 37.66 41.94 42.81 42.04 47.09 C 42.17 50.59 39.60 53.22 38.44 56.31 C 37.78 58.81 37.98 61.44 37.84 64.00 L 25.93 64.00 C 26.06 60.11 25.45 55.91 27.42 52.35 C 28.52 49.65 31.20 46.67 29.30 43.70 C 27.14 39.76 24.44 35.26 19.76 34.10 C 15.31 33.07 12.32 37.84 8.04 37.95 C 5.37 38.14 2.68 38.05 0.00 38.04 L 0.00 26.13 C 3.52 26.05 7.27 26.27 10.39 24.32 Z" />
<path fill="#795724" d=" M 26.74 36.98 C 29.08 34.41 31.43 31.86 34.13 29.67 C 34.16 32.11 33.99 34.54 33.94 36.98 C 31.54 36.99 29.14 37.07 26.74 36.98 Z" />
<path fill="#6bbdec" d=" M 32.13 33.18 C 33.92 33.65 32.71 36.46 31.10 36.01 C 29.21 35.58 30.62 32.88 32.13 33.18 Z" />
<path fill="#795724" d=" M 8.04 37.95 C 12.32 37.84 15.31 33.07 19.76 34.10 C 24.44 35.26 27.14 39.76 29.30 43.70 C 31.20 46.67 28.52 49.65 27.42 52.35 C 25.45 55.91 26.06 60.11 25.93 64.00 L 23.96 64.00 C 23.92 60.71 23.71 57.40 24.24 54.13 C 24.99 51.28 26.96 48.88 27.72 46.04 C 26.92 41.74 23.66 37.92 19.60 36.32 C 17.30 35.43 15.34 37.49 13.34 38.30 C 9.32 40.75 4.47 39.98 0.00 40.04 L 0.00 38.04 C 2.68 38.05 5.37 38.14 8.04 37.95 Z" />
<path fill="#74bd4a" d=" M 13.34 38.30 C 15.34 37.49 17.30 35.43 19.60 36.32 C 23.66 37.92 26.92 41.74 27.72 46.04 C 26.96 48.88 24.99 51.28 24.24 54.13 C 23.71 57.40 23.92 60.71 23.96 64.00 L 0.00 64.00 L 0.00 40.04 C 4.47 39.98 9.32 40.75 13.34 38.30 Z" />
</svg>
