<?xml version="1.0" encoding="UTF-8" ?>
<!DOCTYPE svg PUBLIC "-//W3C//DTD SVG 1.1//EN" "http://www.w3.org/Graphics/SVG/1.1/DTD/svg11.dtd">
<svg width="64pt" height="64pt" viewBox="0 0 64 64" version="1.1" xmlns="http://www.w3.org/2000/svg">
<path fill="#74bd4a" d=" M 0.00 0.00 L 64.00 0.00 L 64.00 64.00 L 39.91 64.00 C 39.97 61.42 39.71 58.79 40.34 56.26 C 42.11 52.72 45.46 49.52 44.78 45.20 C 44.53 38.63 38.97 34.51 34.78 30.22 C 32.12 27.90 29.99 24.02 26.04 24.04 C 17.36 23.83 8.68 24.09 0.00 24.03 L 0.00 0.00 Z" />
<path fill="#795724" d=" M 0.00 24.03 C 8.68 24.09 17.36 23.83 26.04 24.04 C 29.99 24.02 32.12 27.90 34.78 30.22 C 38.97 34.51 44.53 38.63 44.78 45.20 C 45.46 49.52 42.11 52.72 40.34 56.26 C 39.71 58.79 39.97 61.42 39.91 64.00 L 37.97 64.00 C 38.00 61.05 37.79 58.07 38.28 55.15 C 39.36 52.44 42.37 50.63 42.35 47.46 C 43.16 42.43 40.34 37.84 36.39 34.97 C 36.25 36.93 35.97 38.86 35.86 40.82 C 33.72 40.99 31.58 41.06 29.44 41.24 C 29.65 43.42 30.05 45.60 29.78 47.79 C 28.98 50.41 27.05 52.52 26.29 55.15 C 25.78 58.07 25.99 61.05 25.96 64.00 L 23.98 64.00 C 23.95 61.00 23.78 57.99 24.13 55.01 C 24.62 51.70 27.26 49.21 28.03 45.99 C 27.66 43.41 26.05 39.99 23.02 40.04 C 15.35 39.71 7.67 40.09 0.00 40.01 L 0.00 38.01 C 7.69 38.10 15.38 37.83 23.07 38.07 C 25.29 38.05 27.06 39.50 28.90 40.53 C 31.07 38.38 33.20 36.18 35.25 33.91 C 32.63 31.16 30.30 27.86 26.78 26.21 C 17.88 25.61 8.92 26.19 0.00 26.00 L 0.00 24.03 Z" />
<path fill="#6bbdec" d=" M 0.00 26.00 C 8.92 26.19 17.88 25.61 26.78 26.21 C 30.30 27.86 32.63 31.16 35.25 33.91 C 33.20 36.18 31.07 38.38 28.90 40.53 C 27.06 39.50 25.29 38.05 23.07 38.07 C 15.38 37.83 7.69 38.10 0.00 38.01 L 0.00 26.00 Z" />
<path fill="#6bbdec" d=" M 36.39 34.97 C 40.34 37.84 43.16 42.43 42.35 47.46 C 42.37 50.63 39.36 52.44 38.28 55.15 C 37.79 58.07 38.00 61.05 37.97 64.00 L 25.96 64.00 C 25.99 61.05 25.78 58.07 26.29 55.15 C 27.05 52.52 28.98 50.41 29.78 47.79 C 30.05 45.60 29.65 43.42 29.44 41.24 C 31.58 41.06 33.72 40.99 35.86 40.82 C 35.97 38.86 36.25 36.93 36.39 34.97 Z" />
<path fill="#6bbdec" d=" M 30.89 40.02 C 31.45 38.13 33.40 37.19 34.97 36.26 C 34.98 37.20 35.00 39.08 35.01 40.02 C 33.64 39.97 32.26 39.97 30.89 40.02 Z" />
<path fill="#74bd4a" d=" M 0.00 40.01 C 7.67 40.09 15.35 39.71 23.02 40.04 C 26.05 39.99 27.66 43.41 28.03 45.99 C 27.26 49.21 24.62 51.70 24.13 55.01 C 23.78 57.99 23.95 61.00 23.98 64.00 L 0.00 64.00 L 0.00 40.01 Z" />
</svg>
