<?xml version="1.0" encoding="UTF-8" ?>
<!DOCTYPE svg PUBLIC "-//W3C//DTD SVG 1.1//EN" "http://www.w3.org/Graphics/SVG/1.1/DTD/svg11.dtd">
<svg width="64pt" height="64pt" viewBox="0 0 64 64" version="1.1" xmlns="http://www.w3.org/2000/svg">
<path fill="#74bd4a" d=" M 0.00 0.00 L 24.03 0.00 C 23.97 4.02 23.70 8.05 24.05 12.06 C 24.45 16.73 28.37 20.30 28.46 25.05 C 28.53 29.06 28.30 33.09 27.90 37.08 C 27.51 41.32 23.94 44.57 23.97 48.91 C 23.75 53.94 24.05 58.97 24.03 64.00 L 0.00 64.00 L 0.00 0.00 Z" />
<path fill="#795724" d=" M 24.03 0.00 L 26.03 0.00 C 26.08 4.57 25.54 9.20 26.37 13.72 C 28.11 17.35 30.82 20.79 30.56 25.06 C 30.26 29.72 30.07 34.40 29.87 39.07 C 29.83 42.50 26.13 44.54 26.07 47.95 C 25.76 53.30 26.09 58.65 26.00 64.00 L 24.03 64.00 C 24.05 58.97 23.75 53.94 23.97 48.91 C 23.94 44.57 27.51 41.32 27.90 37.08 C 28.30 33.09 28.53 29.06 28.46 25.05 C 28.37 20.30 24.45 16.73 24.05 12.06 C 23.70 8.05 23.97 4.02 24.03 0.00 Z" />
<path fill="#6bbdeb" d=" M 26.03 0.00 L 37.96 0.00 C 37.97 3.01 37.86 6.02 38.07 9.03 C 38.30 13.32 42.12 16.54 41.99 20.92 C 42.05 27.29 42.16 33.68 41.93 40.05 C 41.87 43.47 38.20 45.52 38.10 48.94 C 37.78 53.95 38.07 58.98 38.02 64.00 L 26.00 64.00 C 26.09 58.65 25.76 53.30 26.07 47.95 C 26.13 44.54 29.83 42.50 29.87 39.07 C 30.07 34.40 30.26 29.72 30.56 25.06 C 30.82 20.79 28.11 17.35 26.37 13.72 C 25.54 9.20 26.08 4.57 26.03 0.00 Z" />
<path fill="#795724" d=" M 37.96 0.00 L 39.88 0.00 C 39.88 2.35 39.83 4.71 40.01 7.06 C 40.22 11.99 43.96 15.96 44.01 20.93 C 44.15 26.98 44.09 33.04 43.99 39.09 C 44.10 43.46 40.45 46.69 40.05 50.93 C 39.67 55.28 40.00 59.64 40.04 64.00 L 38.02 64.00 C 38.07 58.98 37.78 53.95 38.10 48.94 C 38.20 45.52 41.87 43.47 41.93 40.05 C 42.16 33.68 42.05 27.29 41.99 20.92 C 42.12 16.54 38.30 13.32 38.07 9.03 C 37.86 6.02 37.97 3.01 37.96 0.00 Z" />
<path fill="#74bd4a" d=" M 39.88 0.00 L 64.00 0.00 L 64.00 64.00 L 40.04 64.00 C 40.00 59.64 39.67 55.28 40.05 50.93 C 40.45 46.69 44.10 43.46 43.99 39.09 C 44.09 33.04 44.15 26.98 44.01 20.93 C 43.96 15.96 40.22 11.99 40.01 7.06 C 39.83 4.71 39.88 2.35 39.88 0.00 Z" />
<path fill="#795724" d=" M 31.76 30.04 C 34.91 29.92 38.07 29.93 41.21 30.04 C 39.83 31.76 38.29 33.34 36.74 34.90 C 34.76 33.64 33.25 31.83 31.76 30.04 Z" />
<path fill="#6bbdeb" d=" M 35.29 31.32 C 36.29 29.93 38.90 31.43 37.69 32.93 C 36.73 34.44 34.14 32.78 35.29 31.32 Z" />
</svg>
