<?xml version="1.0" encoding="UTF-8" ?>
<!DOCTYPE svg PUBLIC "-//W3C//DTD SVG 1.1//EN" "http://www.w3.org/Graphics/SVG/1.1/DTD/svg11.dtd">
<svg width="64pt" height="64pt" viewBox="0 0 64 64" version="1.1" xmlns="http://www.w3.org/2000/svg">
<path fill="#74bd4a" d=" M 0.00 0.00 L 64.00 0.00 L 64.00 24.01 C 56.69 24.21 49.36 23.59 42.07 24.17 C 36.88 24.54 33.95 29.29 30.65 32.67 C 28.03 35.75 24.03 38.49 24.04 42.97 C 23.74 49.98 24.15 56.99 24.00 64.00 L 0.00 64.00 L 0.00 0.00 Z" />
<path fill="#795724" d=" M 30.65 32.67 C 33.95 29.29 36.88 24.54 42.07 24.17 C 49.36 23.59 56.69 24.21 64.00 24.01 L 64.00 26.00 C 57.01 26.11 50.01 25.75 43.02 26.11 C 38.08 26.38 35.39 31.06 32.20 34.18 C 29.69 37.06 25.76 39.64 26.02 43.93 C 25.84 50.62 26.09 57.31 26.00 64.00 L 24.00 64.00 C 24.15 56.99 23.74 49.98 24.04 42.97 C 24.03 38.49 28.03 35.75 30.65 32.67 Z" />
<path fill="#6bbdec" d=" M 32.20 34.18 C 35.39 31.06 38.08 26.38 43.02 26.11 C 50.01 25.75 57.01 26.11 64.00 26.00 L 64.00 38.01 C 56.75 38.46 48.69 36.30 42.30 40.79 C 42.09 38.87 41.92 36.95 41.74 35.03 C 39.41 34.98 37.07 34.95 34.73 35.03 C 36.95 37.58 39.37 39.95 41.77 42.33 C 40.27 45.06 37.91 47.62 38.01 50.91 C 37.86 55.27 38.04 59.64 38.02 64.00 L 26.00 64.00 C 26.09 57.31 25.84 50.62 26.02 43.93 C 25.76 39.64 29.69 37.06 32.20 34.18 Z" />
<path fill="#795724" d=" M 34.73 35.03 C 37.07 34.95 39.41 34.98 41.74 35.03 C 41.92 36.95 42.09 38.87 42.30 40.79 C 48.69 36.30 56.75 38.46 64.00 38.01 L 64.00 40.04 C 58.50 40.20 52.86 39.25 47.47 40.51 C 43.43 42.83 39.93 47.07 39.98 51.94 C 39.80 55.96 39.99 59.98 40.04 64.00 L 38.02 64.00 C 38.04 59.64 37.86 55.27 38.01 50.91 C 37.91 47.62 40.27 45.06 41.77 42.33 C 39.37 39.95 36.95 37.58 34.73 35.03 Z" />
<path fill="#6bbdec" d=" M 36.77 36.00 C 38.18 36.00 39.59 36.00 41.00 35.98 C 40.99 36.94 40.98 38.86 40.98 39.81 C 39.28 38.89 37.82 37.63 36.77 36.00 Z" />
<path fill="#74bd4a" d=" M 47.47 40.51 C 52.86 39.25 58.50 40.20 64.00 40.04 L 64.00 64.00 L 40.04 64.00 C 39.99 59.98 39.80 55.96 39.98 51.94 C 39.93 47.07 43.43 42.83 47.47 40.51 Z" />
</svg>
