<?xml version="1.0" encoding="UTF-8" ?>
<!DOCTYPE svg PUBLIC "-//W3C//DTD SVG 1.1//EN" "http://www.w3.org/Graphics/SVG/1.1/DTD/svg11.dtd">
<svg width="64pt" height="64pt" viewBox="0 0 64 64" version="1.1" xmlns="http://www.w3.org/2000/svg">
<path fill="#73bd4a" d=" M 0.00 0.00 L 64.00 0.00 L 64.00 64.00 L 0.00 64.00 L 0.00 0.00 Z" />
<path fill="#62621e" d=" M 39.45 7.46 C 43.59 6.37 49.07 6.25 51.80 10.19 C 54.56 14.27 52.99 19.59 50.74 23.55 C 48.91 26.65 47.97 30.81 44.57 32.60 C 40.20 33.82 34.22 33.78 31.78 29.22 C 29.33 24.55 31.70 19.44 33.98 15.24 C 35.58 12.56 36.30 8.79 39.45 7.46 Z" />
<path fill="#6abced" d=" M 40.43 9.32 C 44.57 7.37 50.17 9.45 51.19 14.12 C 52.13 18.34 48.56 21.48 47.27 25.16 C 46.21 27.93 44.48 31.49 40.96 31.28 C 36.76 32.04 32.32 28.39 32.68 24.03 C 32.26 21.18 34.84 19.46 36.09 17.26 C 37.29 14.51 37.50 10.92 40.43 9.32 Z" />
</svg>
