<?xml version="1.0" encoding="UTF-8" ?>
<!DOCTYPE svg PUBLIC "-//W3C//DTD SVG 1.1//EN" "http://www.w3.org/Graphics/SVG/1.1/DTD/svg11.dtd">
<svg width="64pt" height="64pt" viewBox="0 0 64 64" version="1.1" xmlns="http://www.w3.org/2000/svg">
<path fill="#74bd4a" d=" M 0.00 0.00 L 64.00 0.00 L 64.00 24.21 C 61.73 24.11 59.42 24.22 57.18 23.71 C 54.13 22.49 51.58 19.81 48.08 19.91 C 43.43 19.86 38.18 19.21 34.18 22.11 C 31.09 24.31 28.24 26.87 25.76 29.75 C 23.66 31.94 24.03 35.19 23.91 37.98 C 24.03 46.65 24.01 55.32 24.00 64.00 L 0.00 64.00 L 0.00 0.00 Z" />
<path fill="#795724" d=" M 34.18 22.11 C 38.18 19.21 43.43 19.86 48.08 19.91 C 51.58 19.81 54.13 22.49 57.18 23.71 C 59.42 24.22 61.73 24.11 64.00 24.21 L 64.00 26.08 C 61.08 25.99 58.11 26.25 55.24 25.63 C 52.81 24.51 50.97 21.95 48.09 22.00 C 43.76 21.92 38.81 21.19 35.17 24.10 C 31.90 26.46 28.74 29.13 26.43 32.46 C 25.85 34.23 26.00 36.13 25.93 37.96 C 26.02 46.64 26.00 55.32 26.00 64.00 L 24.00 64.00 C 24.01 55.32 24.03 46.65 23.91 37.98 C 24.03 35.19 23.66 31.94 25.76 29.75 C 28.24 26.87 31.09 24.31 34.18 22.11 Z" />
<path fill="#6bbdec" d=" M 35.17 24.10 C 38.81 21.19 43.76 21.92 48.09 22.00 C 50.97 21.95 52.81 24.51 55.24 25.63 C 58.11 26.25 61.08 25.99 64.00 26.08 L 64.00 38.01 C 60.99 38.03 57.98 38.17 54.97 37.96 C 51.23 37.87 48.98 33.43 45.09 33.99 C 41.95 34.35 38.14 36.40 38.14 39.99 C 37.76 47.98 38.13 56.00 38.00 64.00 L 26.00 64.00 C 26.00 55.32 26.02 46.64 25.93 37.96 C 26.00 36.13 25.85 34.23 26.43 32.46 C 28.74 29.13 31.90 26.46 35.17 24.10 Z" />
<path fill="#795724" d=" M 31.76 29.02 C 34.17 28.98 36.57 29.00 38.98 29.00 C 39.00 31.46 39.03 33.91 38.99 36.36 C 36.35 34.15 33.89 31.73 31.76 29.02 Z" />
<path fill="#6bbdec" d=" M 33.77 30.01 C 35.18 30.03 36.60 30.02 38.02 29.98 C 37.98 31.40 37.97 32.82 37.98 34.23 C 36.35 33.08 34.92 31.65 33.77 30.01 Z" />
<path fill="#795724" d=" M 38.14 39.99 C 38.14 36.40 41.95 34.35 45.09 33.99 C 48.98 33.43 51.23 37.87 54.97 37.96 C 57.98 38.17 60.99 38.03 64.00 38.01 L 64.00 40.00 C 60.37 40.03 56.71 40.34 53.11 39.78 C 50.48 39.01 48.52 36.87 45.95 35.95 C 43.33 36.26 39.93 37.93 40.01 40.99 C 39.73 48.65 40.17 56.33 40.00 64.00 L 38.00 64.00 C 38.13 56.00 37.76 47.98 38.14 39.99 Z" />
<path fill="#74bd4a" d=" M 40.01 40.99 C 39.93 37.93 43.33 36.26 45.95 35.95 C 48.52 36.87 50.48 39.01 53.11 39.78 C 56.71 40.34 60.37 40.03 64.00 40.00 L 64.00 64.00 L 40.00 64.00 C 40.17 56.33 39.73 48.65 40.01 40.99 Z" />
</svg>
