<?xml version="1.0" encoding="UTF-8" ?>
<!DOCTYPE svg PUBLIC "-//W3C//DTD SVG 1.1//EN" "http://www.w3.org/Graphics/SVG/1.1/DTD/svg11.dtd">
<svg width="64pt" height="64pt" viewBox="0 0 64 64" version="1.1" xmlns="http://www.w3.org/2000/svg">
<path fill="#74bd4a" d=" M 0.00 0.00 L 64.00 0.00 L 64.00 23.94 C 59.43 23.86 54.70 23.68 50.41 25.53 C 46.53 27.19 42.27 27.81 38.46 29.64 C 35.36 31.75 33.30 35.02 30.48 37.45 C 27.93 39.91 24.62 42.31 24.19 46.11 C 23.58 52.05 24.09 58.04 24.03 64.00 L 0.00 64.00 L 0.00 0.00 Z" />
<path fill="#795724" d=" M 50.41 25.53 C 54.70 23.68 59.43 23.86 64.00 23.94 L 64.00 25.93 C 59.55 26.02 54.79 25.39 50.76 27.73 C 47.62 29.42 44.05 29.81 40.67 30.77 C 37.66 32.24 36.01 35.35 33.59 37.54 C 30.71 40.34 26.86 42.87 26.24 47.17 C 25.64 52.76 26.11 58.39 26.00 64.00 L 24.03 64.00 C 24.09 58.04 23.58 52.05 24.19 46.11 C 24.62 42.31 27.93 39.91 30.48 37.45 C 33.30 35.02 35.36 31.75 38.46 29.64 C 42.27 27.81 46.53 27.19 50.41 25.53 Z" />
<path fill="#6bbdeb" d=" M 50.76 27.73 C 54.79 25.39 59.55 26.02 64.00 25.93 L 64.00 37.80 C 59.73 37.68 55.47 38.34 51.82 40.67 C 46.38 42.67 40.62 45.62 38.43 51.38 C 37.57 55.52 38.09 59.80 38.01 64.00 L 26.00 64.00 C 26.11 58.39 25.64 52.76 26.24 47.17 C 26.86 42.87 30.71 40.34 33.59 37.54 C 36.01 35.35 37.66 32.24 40.67 30.77 C 44.05 29.81 47.62 29.42 50.76 27.73 Z" />
<path fill="#795724" d=" M 35.59 37.02 C 38.05 36.98 40.51 36.97 42.96 37.04 C 43.03 39.49 43.03 41.94 42.98 44.40 C 40.41 42.05 37.95 39.59 35.59 37.02 Z" />
<path fill="#6bbdeb" d=" M 37.72 38.01 C 39.15 38.04 40.57 38.03 42.00 38.00 C 41.97 39.43 41.96 40.85 41.98 42.28 C 40.50 40.92 39.08 39.50 37.72 38.01 Z" />
<path fill="#795724" d=" M 51.82 40.67 C 55.47 38.34 59.73 37.68 64.00 37.80 L 64.00 39.53 C 56.79 40.03 50.06 43.21 44.13 47.15 C 38.79 51.03 40.03 58.28 39.94 64.00 L 38.01 64.00 C 38.09 59.80 37.57 55.52 38.43 51.38 C 40.62 45.62 46.38 42.67 51.82 40.67 Z" />
<path fill="#74bd4a" d=" M 44.13 47.15 C 50.06 43.21 56.79 40.03 64.00 39.53 L 64.00 64.00 L 39.94 64.00 C 40.03 58.28 38.79 51.03 44.13 47.15 Z" />
</svg>
