<?xml version="1.0" encoding="UTF-8" ?>
<!DOCTYPE svg PUBLIC "-//W3C//DTD SVG 1.1//EN" "http://www.w3.org/Graphics/SVG/1.1/DTD/svg11.dtd">
<svg width="64pt" height="64pt" viewBox="0 0 64 64" version="1.1" xmlns="http://www.w3.org/2000/svg">
<path fill="#74bd4a" d=" M 0.00 0.00 L 64.00 0.00 L 64.00 64.00 L 39.99 64.00 C 39.35 55.43 42.14 45.73 36.84 38.17 C 34.27 34.14 30.62 30.94 26.65 28.31 C 23.73 26.40 20.76 23.95 17.07 23.99 C 11.38 23.80 5.69 24.10 0.00 24.03 L 0.00 0.00 Z" />
<path fill="#795724" d=" M 0.00 24.03 C 5.69 24.10 11.38 23.80 17.07 23.99 C 20.76 23.95 23.73 26.40 26.65 28.31 C 30.62 30.94 34.27 34.14 36.84 38.17 C 42.14 45.73 39.35 55.43 39.99 64.00 L 38.00 64.00 C 37.81 57.77 38.51 51.47 37.63 45.28 C 35.19 36.07 26.82 30.29 18.77 26.24 C 12.55 25.55 6.25 26.19 0.00 26.00 L 0.00 24.03 Z" />
<path fill="#6bbdec" d=" M 0.00 26.00 C 6.25 26.19 12.55 25.55 18.77 26.24 C 26.82 30.29 35.19 36.07 37.63 45.28 C 38.51 51.47 37.81 57.77 38.00 64.00 L 25.99 64.00 C 26.00 59.98 26.08 55.95 26.03 51.93 C 26.38 46.73 23.15 41.73 18.95 38.93 C 12.83 37.11 6.29 38.33 0.00 38.02 L 0.00 26.00 Z" />
<path fill="#795724" d=" M 23.02 35.00 C 25.42 35.01 27.81 35.01 30.21 35.02 C 29.89 35.43 29.24 36.25 28.92 36.66 C 27.30 36.34 25.66 36.08 24.02 35.87 C 24.00 37.28 23.98 38.68 23.96 40.09 C 25.11 39.34 26.28 38.60 27.49 37.92 C 26.15 39.56 24.58 41.00 22.97 42.37 C 22.94 39.91 22.98 37.45 23.02 35.00 Z" />
<path fill="#795724" d=" M 0.00 38.02 C 6.29 38.33 12.83 37.11 18.95 38.93 C 23.15 41.73 26.38 46.73 26.03 51.93 C 26.08 55.95 26.00 59.98 25.99 64.00 L 23.97 64.00 C 23.88 58.81 24.60 53.51 23.50 48.39 C 22.22 44.83 19.76 40.92 15.69 40.34 C 10.50 39.53 5.22 40.04 0.00 40.03 L 0.00 38.02 Z" />
<path fill="#74bd4a" d=" M 0.00 40.03 C 5.22 40.04 10.50 39.53 15.69 40.34 C 19.76 40.92 22.22 44.83 23.50 48.39 C 24.60 53.51 23.88 58.81 23.97 64.00 L 0.00 64.00 L 0.00 40.03 Z" />
</svg>
