<?xml version="1.0" encoding="UTF-8" ?>
<!DOCTYPE svg PUBLIC "-//W3C//DTD SVG 1.1//EN" "http://www.w3.org/Graphics/SVG/1.1/DTD/svg11.dtd">
<svg width="64pt" height="64pt" viewBox="0 0 64 64" version="1.1" xmlns="http://www.w3.org/2000/svg">
<path fill="#74bd4a" d=" M 0.00 0.00 L 64.00 0.00 L 64.00 64.00 L 40.00 64.00 C 40.01 55.66 39.95 47.32 40.06 38.98 C 39.95 36.11 40.32 32.89 38.49 30.45 C 36.08 27.26 33.20 24.44 30.21 21.81 C 28.59 20.19 26.23 20.00 24.07 19.89 C 19.32 19.72 14.22 19.40 10.00 22.00 C 6.99 23.84 3.44 24.17 0.00 24.34 L 0.00 0.00 Z" />
<path fill="#795724" d=" M 10.00 22.00 C 14.22 19.40 19.32 19.72 24.07 19.89 C 26.23 20.00 28.59 20.19 30.21 21.81 C 33.20 24.44 36.08 27.26 38.49 30.45 C 40.32 32.89 39.95 36.11 40.06 38.98 C 39.95 47.32 40.01 55.66 40.00 64.00 L 38.00 64.00 C 38.00 55.65 37.99 47.30 38.06 38.95 C 37.93 36.43 38.35 33.53 36.57 31.46 C 33.94 28.11 30.97 24.94 27.49 22.47 C 24.06 21.54 20.43 21.92 16.91 21.96 C 13.12 21.79 10.39 24.87 6.90 25.77 C 4.62 26.12 2.30 26.05 0.00 26.12 L 0.00 24.34 C 3.44 24.17 6.99 23.84 10.00 22.00 Z" />
<path fill="#6abdec" d=" M 6.90 25.77 C 10.39 24.87 13.12 21.79 16.91 21.96 C 20.43 21.92 24.06 21.54 27.49 22.47 C 30.97 24.94 33.94 28.11 36.57 31.46 C 38.35 33.53 37.93 36.43 38.06 38.95 C 37.99 47.30 38.00 55.65 38.00 64.00 L 26.00 64.00 C 25.95 56.97 26.09 49.94 26.00 42.91 C 26.31 38.94 23.24 35.51 19.74 34.11 C 15.85 32.97 13.37 37.10 9.91 37.86 C 6.62 38.25 3.30 38.01 0.00 38.01 L 0.00 26.12 C 2.30 26.05 4.62 26.12 6.90 25.77 Z" />
<path fill="#795724" d=" M 27.02 30.01 C 29.45 30.02 31.88 29.94 34.32 30.01 C 32.11 32.63 29.71 35.10 27.02 37.24 C 26.98 34.83 27.02 32.42 27.02 30.01 Z" />
<path fill="#6abdec" d=" M 27.94 30.98 C 28.94 31.00 30.94 31.03 31.94 31.05 C 30.81 32.63 29.69 34.27 27.96 35.26 C 28.03 33.83 28.03 32.40 27.94 30.98 Z" />
<path fill="#795724" d=" M 9.91 37.86 C 13.37 37.10 15.85 32.97 19.74 34.11 C 23.24 35.51 26.31 38.94 26.00 42.91 C 26.09 49.94 25.95 56.97 26.00 64.00 L 24.00 64.00 C 23.84 56.99 24.29 49.97 23.96 42.97 C 24.02 39.63 21.30 36.53 18.05 35.98 C 15.54 36.98 13.47 38.89 10.88 39.72 C 7.29 40.35 3.62 40.01 0.00 40.01 L 0.00 38.01 C 3.30 38.01 6.62 38.25 9.91 37.86 Z" />
<path fill="#74bd4a" d=" M 10.88 39.72 C 13.47 38.89 15.54 36.98 18.05 35.98 C 21.30 36.53 24.02 39.63 23.96 42.97 C 24.29 49.97 23.84 56.99 24.00 64.00 L 0.00 64.00 L 0.00 40.01 C 3.62 40.01 7.29 40.35 10.88 39.72 Z" />
</svg>
