<?xml version="1.0" encoding="UTF-8" ?>
<!DOCTYPE svg PUBLIC "-//W3C//DTD SVG 1.1//EN" "http://www.w3.org/Graphics/SVG/1.1/DTD/svg11.dtd">
<svg width="64pt" height="64pt" viewBox="0 0 64 64" version="1.1" xmlns="http://www.w3.org/2000/svg">
<path fill="#74bd4a" d=" M 0.00 0.00 L 23.99 0.00 C 24.03 7.67 24.03 15.34 23.87 23.00 C 23.89 26.97 23.76 31.36 26.35 34.66 C 30.55 40.17 36.82 44.77 43.99 44.94 C 48.05 45.22 51.52 42.80 55.08 41.24 C 57.86 39.93 61.00 39.87 64.00 39.56 L 64.00 64.00 L 0.00 64.00 L 0.00 0.00 Z" />
<path fill="#795724" d=" M 23.99 0.00 L 25.99 0.00 C 26.03 7.67 26.00 15.34 25.89 23.02 C 25.96 26.44 25.73 30.25 27.92 33.14 C 31.69 38.24 37.44 42.46 43.98 42.62 C 47.65 42.81 50.83 40.72 54.03 39.27 C 57.12 37.75 60.65 37.94 64.00 37.73 L 64.00 39.56 C 61.00 39.87 57.86 39.93 55.08 41.24 C 51.52 42.80 48.05 45.22 43.99 44.94 C 36.82 44.77 30.55 40.17 26.35 34.66 C 23.76 31.36 23.89 26.97 23.87 23.00 C 24.03 15.34 24.03 7.67 23.99 0.00 Z" />
<path fill="#6bbdee" d=" M 25.99 0.00 L 37.99 0.00 C 38.19 7.34 37.58 14.69 38.16 22.01 C 38.56 25.59 40.81 30.24 44.99 30.06 C 48.87 29.44 52.06 26.73 55.96 26.18 C 58.62 25.81 61.32 25.87 64.00 25.83 L 64.00 37.73 C 60.65 37.94 57.12 37.75 54.03 39.27 C 50.83 40.72 47.65 42.81 43.98 42.62 C 37.44 42.46 31.69 38.24 27.92 33.14 C 25.73 30.25 25.96 26.44 25.89 23.02 C 26.00 15.34 26.03 7.67 25.99 0.00 Z" />
<path fill="#795724" d=" M 37.99 0.00 L 40.00 0.00 C 40.10 6.69 39.62 13.38 40.02 20.07 C 40.15 23.14 41.25 26.53 44.20 27.98 C 48.02 27.42 51.21 24.89 55.01 24.24 C 57.98 23.73 61.00 23.89 64.00 23.90 L 64.00 25.83 C 61.32 25.87 58.62 25.81 55.96 26.18 C 52.06 26.73 48.87 29.44 44.99 30.06 C 40.81 30.24 38.56 25.59 38.16 22.01 C 37.58 14.69 38.19 7.34 37.99 0.00 Z" />
<path fill="#74bd4a" d=" M 40.00 0.00 L 64.00 0.00 L 64.00 23.90 C 61.00 23.89 57.98 23.73 55.01 24.24 C 51.21 24.89 48.02 27.42 44.20 27.98 C 41.25 26.53 40.15 23.14 40.02 20.07 C 39.62 13.38 40.10 6.69 40.00 0.00 Z" />
<path fill="#795724" d=" M 38.36 30.10 C 38.80 29.76 39.68 29.07 40.12 28.72 C 40.06 31.16 40.01 33.59 39.99 36.03 C 37.60 35.99 35.21 35.99 32.82 35.98 C 33.14 35.57 33.78 34.75 34.09 34.34 C 35.73 34.57 37.36 34.79 39.00 35.01 C 38.78 33.37 38.58 31.74 38.36 30.10 Z" />
</svg>
