<?xml version="1.0" encoding="UTF-8" ?>
<!DOCTYPE svg PUBLIC "-//W3C//DTD SVG 1.1//EN" "http://www.w3.org/Graphics/SVG/1.1/DTD/svg11.dtd">
<svg width="64pt" height="64pt" viewBox="0 0 64 64" version="1.1" xmlns="http://www.w3.org/2000/svg">
<path fill="#73bd4a" d=" M 0.00 0.00 L 64.00 0.00 L 64.00 64.00 L 0.00 64.00 L 0.00 0.00 Z" />
<path fill="#626218" d=" M 31.65 11.56 C 35.58 9.48 40.41 13.02 41.01 17.10 C 42.17 21.09 39.76 24.70 38.21 28.18 C 36.70 31.12 39.34 34.03 39.79 36.92 C 39.08 40.33 34.63 42.17 31.64 40.47 C 26.43 37.63 22.06 32.24 22.67 26.00 C 22.07 19.75 26.45 14.39 31.65 11.56 Z" />
<path fill="#6abced" d=" M 32.62 13.53 C 36.06 11.92 39.07 15.97 39.27 19.06 C 39.17 22.51 36.73 25.28 35.66 28.45 C 34.48 31.86 39.37 36.18 35.63 38.73 C 31.57 39.31 28.50 35.63 26.32 32.70 C 22.19 25.99 25.64 16.75 32.62 13.53 Z" />
</svg>
