<?xml version="1.0" encoding="UTF-8" ?>
<!DOCTYPE svg PUBLIC "-//W3C//DTD SVG 1.1//EN" "http://www.w3.org/Graphics/SVG/1.1/DTD/svg11.dtd">
<svg width="64pt" height="64pt" viewBox="0 0 64 64" version="1.1" xmlns="http://www.w3.org/2000/svg">
<path fill="#74bd4a" d=" M 0.00 0.00 L 64.00 0.00 L 64.00 64.00 L 0.00 64.00 L 0.00 0.00 Z" />
<path fill="#576433" d=" M 18.80 36.57 C 21.05 34.90 23.72 37.35 24.64 39.39 C 25.39 42.34 25.54 45.63 24.53 48.52 C 22.78 51.34 20.29 53.64 17.74 55.73 C 15.48 57.80 11.70 57.54 9.58 55.40 C 6.07 52.58 6.42 47.38 7.44 43.46 C 9.50 38.98 15.21 39.22 18.80 36.57 Z" />
<path fill="#6bbded" d=" M 9.45 44.48 C 11.79 40.58 17.08 41.02 20.51 38.52 C 23.76 40.22 22.97 44.44 22.49 47.45 C 20.76 50.03 18.50 52.23 16.03 54.09 C 14.70 55.26 12.49 55.03 11.35 53.70 C 8.28 51.67 9.13 47.59 9.45 44.48 Z" />
</svg>
