<?xml version="1.0" encoding="UTF-8" ?>
<!DOCTYPE svg PUBLIC "-//W3C//DTD SVG 1.1//EN" "http://www.w3.org/Graphics/SVG/1.1/DTD/svg11.dtd">
<svg width="64pt" height="64pt" viewBox="0 0 64 64" version="1.1" xmlns="http://www.w3.org/2000/svg">
<path fill="#74bd4a" d=" M 0.00 0.00 L 24.02 0.00 C 24.05 4.68 23.73 9.37 24.05 14.05 C 24.28 17.76 28.36 20.04 28.04 23.92 C 27.83 29.99 29.30 36.66 26.12 42.19 C 22.23 48.79 24.59 56.76 24.01 64.00 L 0.00 64.00 L 0.00 0.00 Z" />
<path fill="#795724" d=" M 24.02 0.00 L 26.02 0.00 C 26.03 4.35 25.81 8.70 26.02 13.04 C 25.98 16.51 29.96 18.46 29.94 21.94 C 30.12 27.31 30.11 32.69 29.95 38.05 C 29.85 42.07 26.16 44.92 26.06 48.93 C 25.79 53.95 26.09 58.98 26.00 64.00 L 24.01 64.00 C 24.59 56.76 22.23 48.79 26.12 42.19 C 29.30 36.66 27.83 29.99 28.04 23.92 C 28.36 20.04 24.28 17.76 24.05 14.05 C 23.73 9.37 24.05 4.68 24.02 0.00 Z" />
<path fill="#6abced" d=" M 26.02 0.00 L 37.98 0.00 C 37.97 3.01 37.86 6.03 38.04 9.04 C 38.16 13.05 41.99 15.87 41.96 19.93 C 42.09 26.64 42.08 33.36 41.97 40.06 C 42.12 43.58 37.90 45.39 38.06 48.92 C 37.82 53.94 38.07 58.97 38.02 64.00 L 26.00 64.00 C 26.09 58.98 25.79 53.95 26.06 48.93 C 26.16 44.92 29.85 42.07 29.95 38.05 C 30.11 32.69 30.12 27.31 29.94 21.94 C 29.96 18.46 25.98 16.51 26.02 13.04 C 25.81 8.70 26.03 4.35 26.02 0.00 Z" />
<path fill="#795724" d=" M 37.98 0.00 L 39.96 0.00 C 39.93 2.98 39.73 5.99 40.13 8.95 C 40.89 12.80 44.06 15.87 44.01 19.94 C 44.09 26.65 44.02 33.36 43.98 40.07 C 44.19 44.21 39.81 46.79 39.98 50.92 C 39.79 55.28 40.03 59.64 40.03 64.00 L 38.02 64.00 C 38.07 58.97 37.82 53.94 38.06 48.92 C 37.90 45.39 42.12 43.58 41.97 40.06 C 42.08 33.36 42.09 26.64 41.96 19.93 C 41.99 15.87 38.16 13.05 38.04 9.04 C 37.86 6.03 37.97 3.01 37.98 0.00 Z" />
<path fill="#74bd4a" d=" M 39.96 0.00 L 64.00 0.00 L 64.00 64.00 L 40.03 64.00 C 40.03 59.64 39.79 55.28 39.98 50.92 C 39.81 46.79 44.19 44.21 43.98 40.07 C 44.02 33.36 44.09 26.65 44.01 19.94 C 44.06 15.87 40.89 12.80 40.13 8.95 C 39.73 5.99 39.93 2.98 39.96 0.00 Z" />
<path fill="#795724" d=" M 31.78 34.97 C 33.25 33.17 34.91 31.55 36.67 30.04 C 38.20 31.67 39.74 33.29 41.21 34.98 C 38.07 35.04 34.92 35.06 31.78 34.97 Z" />
<path fill="#6abced" d=" M 36.09 32.06 C 37.46 31.42 38.66 33.69 36.91 33.99 C 35.54 34.63 34.34 32.36 36.09 32.06 Z" />
</svg>
