<?xml version="1.0" encoding="UTF-8" ?>
<!DOCTYPE svg PUBLIC "-//W3C//DTD SVG 1.1//EN" "http://www.w3.org/Graphics/SVG/1.1/DTD/svg11.dtd">
<svg width="64pt" height="64pt" viewBox="0 0 64 64" version="1.1" xmlns="http://www.w3.org/2000/svg">
<path fill="#74bd4a" d=" M 0.00 0.00 L 64.00 0.00 L 64.00 64.00 L 0.00 64.00 L 0.00 0.00 Z" />
<path fill="#ceccc4" d=" M 18.37 8.54 C 21.20 9.97 24.24 9.28 27.03 8.10 C 28.28 9.00 29.58 9.83 30.83 10.73 C 31.47 9.96 32.12 9.19 32.86 8.52 C 35.22 8.45 37.53 10.05 39.86 8.98 C 41.23 8.76 42.88 7.58 44.09 8.82 C 47.01 11.29 50.79 14.09 50.52 18.38 C 51.94 19.71 54.04 20.81 54.28 22.95 C 54.59 25.30 53.95 27.64 54.02 29.99 C 54.97 32.22 57.06 33.72 58.67 35.47 C 58.05 39.32 59.19 43.06 59.62 46.84 C 58.05 50.25 56.04 54.71 51.89 55.35 C 41.87 56.21 31.82 52.55 21.87 54.93 C 20.54 55.10 18.74 55.79 17.87 54.32 C 15.08 50.77 12.07 47.34 8.32 44.76 C 8.77 42.80 9.78 40.77 9.07 38.74 C 8.83 37.20 7.76 35.45 8.88 34.02 C 9.84 32.16 12.25 32.29 13.96 31.59 C 12.27 23.63 15.14 15.70 18.37 8.54 Z" />
</svg>
