<?xml version="1.0" encoding="UTF-8" ?>
<!DOCTYPE svg PUBLIC "-//W3C//DTD SVG 1.1//EN" "http://www.w3.org/Graphics/SVG/1.1/DTD/svg11.dtd">
<svg width="64pt" height="64pt" viewBox="0 0 64 64" version="1.1" xmlns="http://www.w3.org/2000/svg">
<path fill="#74bd4a" d=" M 0.00 0.00 L 64.00 0.00 L 64.00 24.00 C 59.35 24.04 54.11 23.00 50.20 26.19 C 46.84 28.78 41.90 29.00 38.40 26.55 C 35.92 24.83 32.99 24.13 30.04 23.77 C 26.70 23.38 23.89 21.40 20.76 20.37 C 16.89 19.30 12.85 19.99 8.96 20.56 C 8.14 22.53 7.59 24.64 6.33 26.40 C 4.49 28.39 2.12 29.77 0.00 31.44 L 0.00 0.00 Z" />
<path fill="#795724" d=" M 8.96 20.56 C 12.85 19.99 16.89 19.30 20.76 20.37 C 23.89 21.40 26.70 23.38 30.04 23.77 C 32.99 24.13 35.92 24.83 38.40 26.55 C 41.90 29.00 46.84 28.78 50.20 26.19 C 54.11 23.00 59.35 24.04 64.00 24.00 L 64.00 25.97 C 60.75 26.01 57.46 25.70 54.25 26.31 C 52.31 27.22 50.74 28.77 48.78 29.66 C 46.22 30.31 43.53 30.18 40.92 29.98 C 37.49 29.84 35.49 26.10 32.00 26.16 C 28.94 25.93 25.80 25.64 23.18 23.88 C 19.76 21.65 15.43 21.42 11.53 22.32 C 10.30 23.26 9.79 24.84 8.89 26.07 C 6.79 29.60 3.05 31.55 0.00 34.12 L 0.00 31.44 C 2.12 29.77 4.49 28.39 6.33 26.40 C 7.59 24.64 8.14 22.53 8.96 20.56 Z" />
<path fill="#6bbdec" d=" M 8.89 26.07 C 9.79 24.84 10.30 23.26 11.53 22.32 C 15.43 21.42 19.76 21.65 23.18 23.88 C 25.80 25.64 28.94 25.93 32.00 26.16 C 35.49 26.10 37.49 29.84 40.92 29.98 C 43.53 30.18 46.22 30.31 48.78 29.66 C 50.74 28.77 52.31 27.22 54.25 26.31 C 57.46 25.70 60.75 26.01 64.00 25.97 L 64.00 37.94 C 61.08 38.01 58.11 37.76 55.23 38.36 C 53.26 39.22 51.69 40.78 49.75 41.70 C 44.24 42.59 38.61 41.53 33.07 42.15 C 27.39 42.93 25.08 50.43 19.09 50.01 C 12.73 50.12 6.36 49.94 0.00 50.00 L 0.00 34.12 C 3.05 31.55 6.79 29.60 8.89 26.07 Z" />
<path fill="#795724" d=" M 30.04 29.75 C 31.85 31.25 33.49 32.93 35.06 34.68 C 33.42 36.23 31.78 37.79 30.05 39.25 C 29.98 36.08 29.95 32.91 30.04 29.75 Z" />
<path fill="#6bbdec" d=" M 31.42 33.57 C 32.88 32.16 34.33 34.99 32.78 35.88 C 31.24 37.65 30.28 34.58 31.42 33.57 Z" />
<path fill="#795724" d=" M 49.75 41.70 C 51.69 40.78 53.26 39.22 55.23 38.36 C 58.11 37.76 61.08 38.01 64.00 37.94 L 64.00 39.80 C 60.54 39.93 56.72 39.53 53.81 41.81 C 48.36 45.93 41.23 43.16 35.00 44.06 C 29.68 44.14 27.14 49.70 22.76 51.69 C 15.22 52.61 7.58 51.71 0.00 51.99 L 0.00 50.00 C 6.36 49.94 12.73 50.12 19.09 50.01 C 25.08 50.43 27.39 42.93 33.07 42.15 C 38.61 41.53 44.24 42.59 49.75 41.70 Z" />
<path fill="#74bd4a" d=" M 53.81 41.81 C 56.72 39.53 60.54 39.93 64.00 39.80 L 64.00 64.00 L 0.00 64.00 L 0.00 51.99 C 7.58 51.71 15.22 52.61 22.76 51.69 C 27.14 49.70 29.68 44.14 35.00 44.06 C 41.23 43.16 48.36 45.93 53.81 41.81 Z" />
</svg>
