<?xml version="1.0" encoding="UTF-8" ?>
<!DOCTYPE svg PUBLIC "-//W3C//DTD SVG 1.1//EN" "http://www.w3.org/Graphics/SVG/1.1/DTD/svg11.dtd">
<svg width="64pt" height="64pt" viewBox="0 0 64 64" version="1.1" xmlns="http://www.w3.org/2000/svg">
<path fill="#74bd4a" d=" M 0.00 0.00 L 64.00 0.00 L 64.00 64.00 L 0.00 64.00 L 0.00 0.00 Z" />
<path fill="#ceccc4" d=" M 23.04 9.32 C 24.83 7.04 27.57 9.08 29.80 9.26 C 31.45 9.05 33.03 8.53 34.64 8.13 C 38.43 12.52 44.42 12.84 49.59 14.43 C 51.50 15.85 53.11 17.64 55.09 18.97 C 55.33 19.80 55.57 20.64 55.83 21.46 C 57.05 21.92 58.27 22.38 59.46 22.94 C 59.72 32.09 59.57 41.24 59.55 50.40 C 56.96 51.23 54.68 52.77 52.89 54.82 C 47.04 54.70 41.04 53.33 35.29 54.93 C 33.61 55.13 31.99 54.31 30.31 54.22 C 27.38 54.16 24.53 55.13 21.60 55.04 C 20.51 53.76 19.76 52.26 18.98 50.78 C 16.72 50.70 14.51 50.06 12.24 50.00 C 11.07 47.87 10.09 45.61 9.94 43.15 C 9.64 38.15 7.97 33.30 8.14 28.26 C 10.42 26.39 13.97 25.77 14.93 22.60 C 16.61 17.62 19.86 13.42 23.04 9.32 Z" />
</svg>
