<?xml version="1.0" encoding="UTF-8" ?>
<!DOCTYPE svg PUBLIC "-//W3C//DTD SVG 1.1//EN" "http://www.w3.org/Graphics/SVG/1.1/DTD/svg11.dtd">
<svg width="64pt" height="64pt" viewBox="0 0 64 64" version="1.1" xmlns="http://www.w3.org/2000/svg">
<path fill="#73bd4a" d=" M 0.00 0.00 L 64.00 0.00 L 64.00 31.02 C 58.24 31.01 52.32 31.84 46.68 30.39 C 44.03 26.70 45.76 21.45 43.37 17.61 C 41.43 15.08 37.94 14.91 35.02 14.79 C 32.18 14.85 28.95 14.75 26.61 16.64 C 24.08 19.03 23.41 22.65 21.39 25.40 C 15.03 29.36 7.61 31.97 0.00 31.21 L 0.00 0.00 Z" />
<path fill="#785612" d=" M 26.61 16.64 C 28.95 14.75 32.18 14.85 35.02 14.79 C 37.94 14.91 41.43 15.08 43.37 17.61 C 45.76 21.45 44.03 26.70 46.68 30.39 C 52.32 31.84 58.24 31.01 64.00 31.02 L 64.00 32.92 C 58.69 32.89 53.38 33.25 48.08 32.95 C 45.93 33.06 44.35 31.26 43.37 29.57 C 42.46 25.40 44.39 19.56 39.58 17.29 C 35.33 16.81 29.56 15.56 26.72 19.70 C 24.78 22.06 25.16 25.70 22.78 27.75 C 20.25 29.07 17.24 29.24 14.86 30.89 C 10.61 34.20 4.96 32.78 0.00 33.01 L 0.00 31.21 C 7.61 31.97 15.03 29.36 21.39 25.40 C 23.41 22.65 24.08 19.03 26.61 16.64 Z" />
<path fill="#ebe399" d=" M 26.72 19.70 C 29.56 15.56 35.33 16.81 39.58 17.29 C 44.39 19.56 42.46 25.40 43.37 29.57 C 44.35 31.26 45.93 33.06 48.08 32.95 C 53.38 33.25 58.69 32.89 64.00 32.92 L 64.00 48.01 C 58.78 47.91 53.50 48.51 48.33 47.65 C 44.22 45.59 42.37 39.49 37.08 39.99 C 30.47 40.00 23.82 39.60 17.24 40.25 C 13.65 41.66 11.78 45.59 8.50 47.54 C 5.73 48.26 2.83 48.11 0.00 48.27 L 0.00 33.01 C 4.96 32.78 10.61 34.20 14.86 30.89 C 17.24 29.24 20.25 29.07 22.78 27.75 C 25.16 25.70 24.78 22.06 26.72 19.70 Z" />
<path fill="#6abced" d=" M 8.50 47.54 C 11.78 45.59 13.65 41.66 17.24 40.25 C 23.82 39.60 30.47 40.00 37.08 39.99 C 42.37 39.49 44.22 45.59 48.33 47.65 C 53.50 48.51 58.78 47.91 64.00 48.01 L 64.00 64.00 L 0.00 64.00 L 0.00 48.27 C 2.83 48.11 5.73 48.26 8.50 47.54 Z" />
</svg>
