<?xml version="1.0" encoding="UTF-8" ?>
<!DOCTYPE svg PUBLIC "-//W3C//DTD SVG 1.1//EN" "http://www.w3.org/Graphics/SVG/1.1/DTD/svg11.dtd">
<svg width="64pt" height="64pt" viewBox="0 0 64 64" version="1.1" xmlns="http://www.w3.org/2000/svg">
<path fill="#74bd4a" d=" M 0.00 0.00 L 64.00 0.00 L 64.00 64.00 L 0.00 64.00 L 0.00 0.00 Z" />
<path fill="#d2d2ca" d=" M 14.98 8.80 C 19.02 7.96 23.21 8.30 27.22 9.14 C 32.65 10.70 38.46 6.27 43.65 9.29 C 46.25 11.01 49.32 11.62 52.38 11.89 C 53.54 14.66 55.26 17.42 55.20 20.51 C 54.61 22.53 53.00 24.03 51.83 25.71 C 53.05 26.22 54.26 26.73 55.47 27.25 C 55.01 30.07 53.99 33.09 55.11 35.88 C 55.73 37.78 57.96 38.24 59.45 39.24 C 60.52 45.30 56.97 50.56 52.96 54.70 C 45.91 53.38 38.80 55.09 31.71 54.65 C 29.12 54.53 26.60 55.28 24.11 55.90 C 22.68 54.05 21.37 51.99 19.38 50.69 C 16.08 50.09 12.71 50.54 9.41 50.79 C 8.12 46.77 8.73 42.62 9.15 38.53 C 8.52 31.90 8.69 25.23 8.61 18.58 C 8.57 16.24 11.67 16.37 13.14 15.22 C 13.84 13.13 13.36 10.48 14.98 8.80 Z" />
</svg>
