<?xml version="1.0" encoding="UTF-8" ?>
<!DOCTYPE svg PUBLIC "-//W3C//DTD SVG 1.1//EN" "http://www.w3.org/Graphics/SVG/1.1/DTD/svg11.dtd">
<svg width="64pt" height="64pt" viewBox="0 0 64 64" version="1.1" xmlns="http://www.w3.org/2000/svg">
<path fill="#73bd4a" d=" M 0.00 0.00 L 15.55 0.00 C 14.85 5.72 10.80 10.07 7.30 14.33 C 5.58 16.77 2.41 15.81 0.00 15.28 L 0.00 0.00 Z" />
<path fill="#675612" d=" M 15.55 0.00 L 17.33 0.00 C 16.90 2.23 17.20 4.82 15.66 6.68 C 12.69 10.38 10.55 14.92 6.54 17.66 C 4.39 18.32 2.09 17.76 0.00 17.15 L 0.00 15.28 C 2.41 15.81 5.58 16.77 7.30 14.33 C 10.80 10.07 14.85 5.72 15.55 0.00 Z" />
<path fill="#ebe399" d=" M 17.33 0.00 L 32.16 0.00 C 31.85 3.35 32.70 7.43 29.89 9.96 C 27.52 12.33 24.87 14.66 24.07 18.08 C 22.97 23.01 18.59 25.85 15.35 29.31 C 11.75 34.11 5.07 31.45 0.00 31.96 L 0.00 17.15 C 2.09 17.76 4.39 18.32 6.54 17.66 C 10.55 14.92 12.69 10.38 15.66 6.68 C 17.20 4.82 16.90 2.23 17.33 0.00 Z" />
<path fill="#6abced" d=" M 32.16 0.00 L 64.00 0.00 L 64.00 64.00 L 0.00 64.00 L 0.00 31.96 C 5.07 31.45 11.75 34.11 15.35 29.31 C 18.59 25.85 22.97 23.01 24.07 18.08 C 24.87 14.66 27.52 12.33 29.89 9.96 C 32.70 7.43 31.85 3.35 32.16 0.00 Z" />
</svg>
