<?xml version="1.0" encoding="UTF-8" ?>
<!DOCTYPE svg PUBLIC "-//W3C//DTD SVG 1.1//EN" "http://www.w3.org/Graphics/SVG/1.1/DTD/svg11.dtd">
<svg width="64pt" height="64pt" viewBox="0 0 64 64" version="1.1" xmlns="http://www.w3.org/2000/svg">
<path fill="#73bd4a" d=" M 0.00 0.00 L 30.94 0.00 C 30.76 6.35 30.99 12.70 31.00 19.06 C 30.86 21.36 31.09 24.38 28.81 25.76 C 25.00 27.48 19.87 26.42 17.02 30.02 C 14.72 32.39 14.91 35.91 14.81 38.97 C 14.87 47.31 14.89 55.66 14.89 64.00 L 0.00 64.00 L 0.00 0.00 Z" />
<path fill="#78601e" d=" M 30.94 0.00 L 33.01 0.00 C 32.94 7.34 33.18 14.68 33.01 22.02 C 33.28 24.95 30.94 27.28 28.54 28.53 C 25.41 29.38 21.48 28.37 19.16 31.15 C 16.66 32.98 16.97 36.21 16.94 38.95 C 17.04 47.30 17.04 55.65 17.01 64.00 L 14.89 64.00 C 14.89 55.66 14.87 47.31 14.81 38.97 C 14.91 35.91 14.72 32.39 17.02 30.02 C 19.87 26.42 25.00 27.48 28.81 25.76 C 31.09 24.38 30.86 21.36 31.00 19.06 C 30.99 12.70 30.76 6.35 30.94 0.00 Z" />
<path fill="#ebe399" d=" M 33.01 0.00 L 48.00 0.00 C 47.87 6.99 48.27 14.00 47.94 20.98 C 48.00 24.66 44.85 27.03 42.67 29.56 C 40.75 31.38 40.22 34.04 39.20 36.38 C 37.64 39.86 33.76 41.75 32.35 45.30 C 31.66 51.50 32.28 57.77 32.01 64.00 L 17.01 64.00 C 17.04 55.65 17.04 47.30 16.94 38.95 C 16.97 36.21 16.66 32.98 19.16 31.15 C 21.48 28.37 25.41 29.38 28.54 28.53 C 30.94 27.28 33.28 24.95 33.01 22.02 C 33.18 14.68 32.94 7.34 33.01 0.00 Z" />
<path fill="#6abced" d=" M 48.00 0.00 L 64.00 0.00 L 64.00 64.00 L 32.01 64.00 C 32.28 57.77 31.66 51.50 32.35 45.30 C 33.76 41.75 37.64 39.86 39.20 36.38 C 40.22 34.04 40.75 31.38 42.67 29.56 C 44.85 27.03 48.00 24.66 47.94 20.98 C 48.27 14.00 47.87 6.99 48.00 0.00 Z" />
</svg>
